<?xml version="1.0" encoding="utf-8" standalone="no"?>
<!DOCTYPE svg PUBLIC "-//W3C//DTD SVG 1.1//EN"
  "http://www.w3.org/Graphics/SVG/1.1/DTD/svg11.dtd">
<svg xmlns:xlink="http://www.w3.org/1999/xlink" width="417.648125pt" height="310.86825pt" viewBox="0 0 417.648125 310.86825" xmlns="http://www.w3.org/2000/svg" version="1.1">
 <metadata>
  <rdf:RDF xmlns:dc="http://purl.org/dc/elements/1.1/" xmlns:cc="http://creativecommons.org/ns#" xmlns:rdf="http://www.w3.org/1999/02/22-rdf-syntax-ns#">
   <cc:Work>
    <dc:type rdf:resource="http://purl.org/dc/dcmitype/StillImage"/>
    <dc:date>2025-08-14T14:03:44.953451</dc:date>
    <dc:format>image/svg+xml</dc:format>
    <dc:creator>
     <cc:Agent>
      <dc:title>Matplotlib v3.10.3, https://matplotlib.org/</dc:title>
     </cc:Agent>
    </dc:creator>
   </cc:Work>
  </rdf:RDF>
 </metadata>
 <defs>
  <style type="text/css">*{stroke-linejoin: round; stroke-linecap: butt}</style>
 </defs>
 <g id="figure_1">
  <g id="patch_1">
   <path d="M 0 310.86825 
L 417.648125 310.86825 
L 417.648125 0 
L 0 0 
z
" style="fill: #ffffff"/>
  </g>
  <g id="axes_1">
   <g id="patch_2">
    <path d="M 53.328125 273.312 
L 410.448125 273.312 
L 410.448125 7.2 
L 53.328125 7.2 
z
" style="fill: #ffffff"/>
   </g>
   <g id="patch_3">
    <path d="M 69.560852 273.312 
L 70.643034 273.312 
L 70.643034 273.192114 
L 69.560852 273.192114 
z
" clip-path="url(#p6093d0a43f)" style="fill: #1f77b4"/>
   </g>
   <g id="patch_4">
    <path d="M 70.643034 273.312 
L 71.725216 273.312 
L 71.725216 272.113135 
L 70.643034 272.113135 
z
" clip-path="url(#p6093d0a43f)" style="fill: #1f77b4"/>
   </g>
   <g id="patch_5">
    <path d="M 71.725216 273.312 
L 72.807398 273.312 
L 72.807398 265.879039 
L 71.725216 265.879039 
z
" clip-path="url(#p6093d0a43f)" style="fill: #1f77b4"/>
   </g>
   <g id="patch_6">
    <path d="M 72.807398 273.312 
L 73.88958 273.312 
L 73.88958 263.12165 
L 72.807398 263.12165 
z
" clip-path="url(#p6093d0a43f)" style="fill: #1f77b4"/>
   </g>
   <g id="patch_7">
    <path d="M 73.88958 273.312 
L 74.971761 273.312 
L 74.971761 241.781858 
L 73.88958 241.781858 
z
" clip-path="url(#p6093d0a43f)" style="fill: #1f77b4"/>
   </g>
   <g id="patch_8">
    <path d="M 74.971761 273.312 
L 76.053943 273.312 
L 76.053943 252.211981 
L 74.971761 252.211981 
z
" clip-path="url(#p6093d0a43f)" style="fill: #1f77b4"/>
   </g>
   <g id="patch_9">
    <path d="M 76.053943 273.312 
L 77.136125 273.312 
L 77.136125 237.945491 
L 76.053943 237.945491 
z
" clip-path="url(#p6093d0a43f)" style="fill: #1f77b4"/>
   </g>
   <g id="patch_10">
    <path d="M 77.136125 273.312 
L 78.218307 273.312 
L 78.218307 236.746626 
L 77.136125 236.746626 
z
" clip-path="url(#p6093d0a43f)" style="fill: #1f77b4"/>
   </g>
   <g id="patch_11">
    <path d="M 78.218307 273.312 
L 79.300489 273.312 
L 79.300489 196.704545 
L 78.218307 196.704545 
z
" clip-path="url(#p6093d0a43f)" style="fill: #1f77b4"/>
   </g>
   <g id="patch_12">
    <path d="M 79.300489 273.312 
L 80.38267 273.312 
L 80.38267 142.995406 
L 79.300489 142.995406 
z
" clip-path="url(#p6093d0a43f)" style="fill: #1f77b4"/>
   </g>
   <g id="patch_13">
    <path d="M 80.38267 273.312 
L 81.464852 273.312 
L 81.464852 70.943637 
L 80.38267 70.943637 
z
" clip-path="url(#p6093d0a43f)" style="fill: #1f77b4"/>
   </g>
   <g id="patch_14">
    <path d="M 81.464852 273.312 
L 82.547034 273.312 
L 82.547034 19.872 
L 81.464852 19.872 
z
" clip-path="url(#p6093d0a43f)" style="fill: #1f77b4"/>
   </g>
   <g id="patch_15">
    <path d="M 82.547034 273.312 
L 83.629216 273.312 
L 83.629216 86.768651 
L 82.547034 86.768651 
z
" clip-path="url(#p6093d0a43f)" style="fill: #1f77b4"/>
   </g>
   <g id="patch_16">
    <path d="M 83.629216 273.312 
L 84.711398 273.312 
L 84.711398 101.75446 
L 83.629216 101.75446 
z
" clip-path="url(#p6093d0a43f)" style="fill: #1f77b4"/>
   </g>
   <g id="patch_17">
    <path d="M 84.711398 273.312 
L 85.79358 273.312 
L 85.79358 65.308973 
L 84.711398 65.308973 
z
" clip-path="url(#p6093d0a43f)" style="fill: #1f77b4"/>
   </g>
   <g id="patch_18">
    <path d="M 85.79358 273.312 
L 86.875761 273.312 
L 86.875761 219.363088 
L 85.79358 219.363088 
z
" clip-path="url(#p6093d0a43f)" style="fill: #1f77b4"/>
   </g>
   <g id="patch_19">
    <path d="M 86.875761 273.312 
L 87.957943 273.312 
L 87.957943 126.2113 
L 86.875761 126.2113 
z
" clip-path="url(#p6093d0a43f)" style="fill: #1f77b4"/>
   </g>
   <g id="patch_20">
    <path d="M 87.957943 273.312 
L 89.040125 273.312 
L 89.040125 125.85164 
L 87.957943 125.85164 
z
" clip-path="url(#p6093d0a43f)" style="fill: #1f77b4"/>
   </g>
   <g id="patch_21">
    <path d="M 89.040125 273.312 
L 90.122307 273.312 
L 90.122307 199.94148 
L 89.040125 199.94148 
z
" clip-path="url(#p6093d0a43f)" style="fill: #1f77b4"/>
   </g>
   <g id="patch_22">
    <path d="M 90.122307 273.312 
L 91.204489 273.312 
L 91.204489 135.442558 
L 90.122307 135.442558 
z
" clip-path="url(#p6093d0a43f)" style="fill: #1f77b4"/>
   </g>
   <g id="patch_23">
    <path d="M 91.204489 273.312 
L 92.28667 273.312 
L 92.28667 221.521044 
L 91.204489 221.521044 
z
" clip-path="url(#p6093d0a43f)" style="fill: #1f77b4"/>
   </g>
   <g id="patch_24">
    <path d="M 92.28667 273.312 
L 93.368852 273.312 
L 93.368852 202.219323 
L 92.28667 202.219323 
z
" clip-path="url(#p6093d0a43f)" style="fill: #1f77b4"/>
   </g>
   <g id="patch_25">
    <path d="M 93.368852 273.312 
L 94.451034 273.312 
L 94.451034 233.749465 
L 93.368852 233.749465 
z
" clip-path="url(#p6093d0a43f)" style="fill: #1f77b4"/>
   </g>
   <g id="patch_26">
    <path d="M 94.451034 273.312 
L 95.533216 273.312 
L 95.533216 223.319342 
L 94.451034 223.319342 
z
" clip-path="url(#p6093d0a43f)" style="fill: #1f77b4"/>
   </g>
   <g id="patch_27">
    <path d="M 95.533216 273.312 
L 96.615398 273.312 
L 96.615398 243.939815 
L 95.533216 243.939815 
z
" clip-path="url(#p6093d0a43f)" style="fill: #1f77b4"/>
   </g>
   <g id="patch_28">
    <path d="M 96.615398 273.312 
L 97.69758 273.312 
L 97.69758 208.932965 
L 96.615398 208.932965 
z
" clip-path="url(#p6093d0a43f)" style="fill: #1f77b4"/>
   </g>
   <g id="patch_29">
    <path d="M 97.69758 273.312 
L 98.779761 273.312 
L 98.779761 242.860836 
L 97.69758 242.860836 
z
" clip-path="url(#p6093d0a43f)" style="fill: #1f77b4"/>
   </g>
   <g id="patch_30">
    <path d="M 98.779761 273.312 
L 99.861943 273.312 
L 99.861943 216.605699 
L 98.779761 216.605699 
z
" clip-path="url(#p6093d0a43f)" style="fill: #1f77b4"/>
   </g>
   <g id="patch_31">
    <path d="M 99.861943 273.312 
L 100.944125 273.312 
L 100.944125 258.206305 
L 99.861943 258.206305 
z
" clip-path="url(#p6093d0a43f)" style="fill: #1f77b4"/>
   </g>
   <g id="patch_32">
    <path d="M 100.944125 273.312 
L 102.026307 273.312 
L 102.026307 242.980723 
L 100.944125 242.980723 
z
" clip-path="url(#p6093d0a43f)" style="fill: #1f77b4"/>
   </g>
   <g id="patch_33">
    <path d="M 102.026307 273.312 
L 103.108489 273.312 
L 103.108489 239.024469 
L 102.026307 239.024469 
z
" clip-path="url(#p6093d0a43f)" style="fill: #1f77b4"/>
   </g>
   <g id="patch_34">
    <path d="M 103.108489 273.312 
L 104.19067 273.312 
L 104.19067 265.998925 
L 103.108489 265.998925 
z
" clip-path="url(#p6093d0a43f)" style="fill: #1f77b4"/>
   </g>
   <g id="patch_35">
    <path d="M 104.19067 273.312 
L 105.272852 273.312 
L 105.272852 256.647781 
L 104.19067 256.647781 
z
" clip-path="url(#p6093d0a43f)" style="fill: #1f77b4"/>
   </g>
   <g id="patch_36">
    <path d="M 105.272852 273.312 
L 106.355034 273.312 
L 106.355034 263.001763 
L 105.272852 263.001763 
z
" clip-path="url(#p6093d0a43f)" style="fill: #1f77b4"/>
   </g>
   <g id="patch_37">
    <path d="M 106.355034 273.312 
L 107.437216 273.312 
L 107.437216 240.822766 
L 106.355034 240.822766 
z
" clip-path="url(#p6093d0a43f)" style="fill: #1f77b4"/>
   </g>
   <g id="patch_38">
    <path d="M 107.437216 273.312 
L 108.519398 273.312 
L 108.519398 264.320515 
L 107.437216 264.320515 
z
" clip-path="url(#p6093d0a43f)" style="fill: #1f77b4"/>
   </g>
   <g id="patch_39">
    <path d="M 108.519398 273.312 
L 109.60158 273.312 
L 109.60158 259.285283 
L 108.519398 259.285283 
z
" clip-path="url(#p6093d0a43f)" style="fill: #1f77b4"/>
   </g>
   <g id="patch_40">
    <path d="M 109.60158 273.312 
L 110.683761 273.312 
L 110.683761 265.879039 
L 109.60158 265.879039 
z
" clip-path="url(#p6093d0a43f)" style="fill: #1f77b4"/>
   </g>
   <g id="patch_41">
    <path d="M 110.683761 273.312 
L 111.765943 273.312 
L 111.765943 248.375614 
L 110.683761 248.375614 
z
" clip-path="url(#p6093d0a43f)" style="fill: #1f77b4"/>
   </g>
   <g id="patch_42">
    <path d="M 111.765943 273.312 
L 112.848125 273.312 
L 112.848125 263.361423 
L 111.765943 263.361423 
z
" clip-path="url(#p6093d0a43f)" style="fill: #1f77b4"/>
   </g>
   <g id="patch_43">
    <path d="M 112.848125 273.312 
L 113.930307 273.312 
L 113.930307 261.683012 
L 112.848125 261.683012 
z
" clip-path="url(#p6093d0a43f)" style="fill: #1f77b4"/>
   </g>
   <g id="patch_44">
    <path d="M 113.930307 273.312 
L 115.012489 273.312 
L 115.012489 268.876201 
L 113.930307 268.876201 
z
" clip-path="url(#p6093d0a43f)" style="fill: #1f77b4"/>
   </g>
   <g id="patch_45">
    <path d="M 115.012489 273.312 
L 116.09467 273.312 
L 116.09467 249.574479 
L 115.012489 249.574479 
z
" clip-path="url(#p6093d0a43f)" style="fill: #1f77b4"/>
   </g>
   <g id="patch_46">
    <path d="M 116.09467 273.312 
L 117.176852 273.312 
L 117.176852 269.475633 
L 116.09467 269.475633 
z
" clip-path="url(#p6093d0a43f)" style="fill: #1f77b4"/>
   </g>
   <g id="patch_47">
    <path d="M 117.176852 273.312 
L 118.259034 273.312 
L 118.259034 263.12165 
L 117.176852 263.12165 
z
" clip-path="url(#p6093d0a43f)" style="fill: #1f77b4"/>
   </g>
   <g id="patch_48">
    <path d="M 118.259034 273.312 
L 119.341216 273.312 
L 119.341216 259.04551 
L 118.259034 259.04551 
z
" clip-path="url(#p6093d0a43f)" style="fill: #1f77b4"/>
   </g>
   <g id="patch_49">
    <path d="M 119.341216 273.312 
L 120.423398 273.312 
L 120.423398 269.475633 
L 119.341216 269.475633 
z
" clip-path="url(#p6093d0a43f)" style="fill: #1f77b4"/>
   </g>
   <g id="patch_50">
    <path d="M 120.423398 273.312 
L 121.50558 273.312 
L 121.50558 265.279606 
L 120.423398 265.279606 
z
" clip-path="url(#p6093d0a43f)" style="fill: #1f77b4"/>
   </g>
   <g id="patch_51">
    <path d="M 121.50558 273.312 
L 122.587761 273.312 
L 122.587761 266.478471 
L 121.50558 266.478471 
z
" clip-path="url(#p6093d0a43f)" style="fill: #1f77b4"/>
   </g>
   <g id="patch_52">
    <path d="M 122.587761 273.312 
L 123.669943 273.312 
L 123.669943 259.884715 
L 122.587761 259.884715 
z
" clip-path="url(#p6093d0a43f)" style="fill: #1f77b4"/>
   </g>
   <g id="patch_53">
    <path d="M 123.669943 273.312 
L 124.752125 273.312 
L 124.752125 267.917109 
L 123.669943 267.917109 
z
" clip-path="url(#p6093d0a43f)" style="fill: #1f77b4"/>
   </g>
   <g id="patch_54">
    <path d="M 124.752125 273.312 
L 125.834307 273.312 
L 125.834307 267.797222 
L 124.752125 267.797222 
z
" clip-path="url(#p6093d0a43f)" style="fill: #1f77b4"/>
   </g>
   <g id="patch_55">
    <path d="M 125.834307 273.312 
L 126.916489 273.312 
L 126.916489 269.23586 
L 125.834307 269.23586 
z
" clip-path="url(#p6093d0a43f)" style="fill: #1f77b4"/>
   </g>
   <g id="patch_56">
    <path d="M 126.916489 273.312 
L 127.99867 273.312 
L 127.99867 257.606872 
L 126.916489 257.606872 
z
" clip-path="url(#p6093d0a43f)" style="fill: #1f77b4"/>
   </g>
   <g id="patch_57">
    <path d="M 127.99867 273.312 
L 129.080852 273.312 
L 129.080852 269.115974 
L 127.99867 269.115974 
z
" clip-path="url(#p6093d0a43f)" style="fill: #1f77b4"/>
   </g>
   <g id="patch_58">
    <path d="M 129.080852 273.312 
L 130.163034 273.312 
L 130.163034 268.876201 
L 129.080852 268.876201 
z
" clip-path="url(#p6093d0a43f)" style="fill: #1f77b4"/>
   </g>
   <g id="patch_59">
    <path d="M 130.163034 273.312 
L 131.245216 273.312 
L 131.245216 271.873362 
L 130.163034 271.873362 
z
" clip-path="url(#p6093d0a43f)" style="fill: #1f77b4"/>
   </g>
   <g id="patch_60">
    <path d="M 131.245216 273.312 
L 132.327398 273.312 
L 132.327398 263.840969 
L 131.245216 263.840969 
z
" clip-path="url(#p6093d0a43f)" style="fill: #1f77b4"/>
   </g>
   <g id="patch_61">
    <path d="M 132.327398 273.312 
L 133.40958 273.312 
L 133.40958 269.355746 
L 132.327398 269.355746 
z
" clip-path="url(#p6093d0a43f)" style="fill: #1f77b4"/>
   </g>
   <g id="patch_62">
    <path d="M 133.40958 273.312 
L 134.491761 273.312 
L 134.491761 272.592681 
L 133.40958 272.592681 
z
" clip-path="url(#p6093d0a43f)" style="fill: #1f77b4"/>
   </g>
   <g id="patch_63">
    <path d="M 134.491761 273.312 
L 135.573943 273.312 
L 135.573943 264.320515 
L 134.491761 264.320515 
z
" clip-path="url(#p6093d0a43f)" style="fill: #1f77b4"/>
   </g>
   <g id="patch_64">
    <path d="M 135.573943 273.312 
L 136.656125 273.312 
L 136.656125 271.393816 
L 135.573943 271.393816 
z
" clip-path="url(#p6093d0a43f)" style="fill: #1f77b4"/>
   </g>
   <g id="patch_65">
    <path d="M 136.656125 273.312 
L 137.738307 273.312 
L 137.738307 268.276768 
L 136.656125 268.276768 
z
" clip-path="url(#p6093d0a43f)" style="fill: #1f77b4"/>
   </g>
   <g id="patch_66">
    <path d="M 137.738307 273.312 
L 138.820489 273.312 
L 138.820489 271.154044 
L 137.738307 271.154044 
z
" clip-path="url(#p6093d0a43f)" style="fill: #1f77b4"/>
   </g>
   <g id="patch_67">
    <path d="M 138.820489 273.312 
L 139.90267 273.312 
L 139.90267 261.922785 
L 138.820489 261.922785 
z
" clip-path="url(#p6093d0a43f)" style="fill: #1f77b4"/>
   </g>
   <g id="patch_68">
    <path d="M 139.90267 273.312 
L 140.984852 273.312 
L 140.984852 271.753476 
L 139.90267 271.753476 
z
" clip-path="url(#p6093d0a43f)" style="fill: #1f77b4"/>
   </g>
   <g id="patch_69">
    <path d="M 140.984852 273.312 
L 142.067034 273.312 
L 142.067034 269.595519 
L 140.984852 269.595519 
z
" clip-path="url(#p6093d0a43f)" style="fill: #1f77b4"/>
   </g>
   <g id="patch_70">
    <path d="M 142.067034 273.312 
L 143.149216 273.312 
L 143.149216 272.113135 
L 142.067034 272.113135 
z
" clip-path="url(#p6093d0a43f)" style="fill: #1f77b4"/>
   </g>
   <g id="patch_71">
    <path d="M 143.149216 273.312 
L 144.231398 273.312 
L 144.231398 267.557449 
L 143.149216 267.557449 
z
" clip-path="url(#p6093d0a43f)" style="fill: #1f77b4"/>
   </g>
   <g id="patch_72">
    <path d="M 144.231398 273.312 
L 145.31358 273.312 
L 145.31358 271.513703 
L 144.231398 271.513703 
z
" clip-path="url(#p6093d0a43f)" style="fill: #1f77b4"/>
   </g>
   <g id="patch_73">
    <path d="M 145.31358 273.312 
L 146.395761 273.312 
L 146.395761 271.034157 
L 145.31358 271.034157 
z
" clip-path="url(#p6093d0a43f)" style="fill: #1f77b4"/>
   </g>
   <g id="patch_74">
    <path d="M 146.395761 273.312 
L 147.477943 273.312 
L 147.477943 272.952341 
L 146.395761 272.952341 
z
" clip-path="url(#p6093d0a43f)" style="fill: #1f77b4"/>
   </g>
   <g id="patch_75">
    <path d="M 147.477943 273.312 
L 148.560125 273.312 
L 148.560125 264.320515 
L 147.477943 264.320515 
z
" clip-path="url(#p6093d0a43f)" style="fill: #1f77b4"/>
   </g>
   <g id="patch_76">
    <path d="M 148.560125 273.312 
L 149.642307 273.312 
L 149.642307 271.154044 
L 148.560125 271.154044 
z
" clip-path="url(#p6093d0a43f)" style="fill: #1f77b4"/>
   </g>
   <g id="patch_77">
    <path d="M 149.642307 273.312 
L 150.724489 273.312 
L 150.724489 271.993249 
L 149.642307 271.993249 
z
" clip-path="url(#p6093d0a43f)" style="fill: #1f77b4"/>
   </g>
   <g id="patch_78">
    <path d="M 150.724489 273.312 
L 151.80667 273.312 
L 151.80667 268.876201 
L 150.724489 268.876201 
z
" clip-path="url(#p6093d0a43f)" style="fill: #1f77b4"/>
   </g>
   <g id="patch_79">
    <path d="M 151.80667 273.312 
L 152.888852 273.312 
L 152.888852 271.633589 
L 151.80667 271.633589 
z
" clip-path="url(#p6093d0a43f)" style="fill: #1f77b4"/>
   </g>
   <g id="patch_80">
    <path d="M 152.888852 273.312 
L 153.971034 273.312 
L 153.971034 270.794384 
L 152.888852 270.794384 
z
" clip-path="url(#p6093d0a43f)" style="fill: #1f77b4"/>
   </g>
   <g id="patch_81">
    <path d="M 153.971034 273.312 
L 155.053216 273.312 
L 155.053216 272.832454 
L 153.971034 272.832454 
z
" clip-path="url(#p6093d0a43f)" style="fill: #1f77b4"/>
   </g>
   <g id="patch_82">
    <path d="M 155.053216 273.312 
L 156.135398 273.312 
L 156.135398 268.636428 
L 155.053216 268.636428 
z
" clip-path="url(#p6093d0a43f)" style="fill: #1f77b4"/>
   </g>
   <g id="patch_83">
    <path d="M 156.135398 273.312 
L 157.21758 273.312 
L 157.21758 271.753476 
L 156.135398 271.753476 
z
" clip-path="url(#p6093d0a43f)" style="fill: #1f77b4"/>
   </g>
   <g id="patch_84">
    <path d="M 157.21758 273.312 
L 158.299761 273.312 
L 158.299761 271.993249 
L 157.21758 271.993249 
z
" clip-path="url(#p6093d0a43f)" style="fill: #1f77b4"/>
   </g>
   <g id="patch_85">
    <path d="M 158.299761 273.312 
L 159.381943 273.312 
L 159.381943 272.592681 
L 158.299761 272.592681 
z
" clip-path="url(#p6093d0a43f)" style="fill: #1f77b4"/>
   </g>
   <g id="patch_86">
    <path d="M 159.381943 273.312 
L 160.464125 273.312 
L 160.464125 271.633589 
L 159.381943 271.633589 
z
" clip-path="url(#p6093d0a43f)" style="fill: #1f77b4"/>
   </g>
   <g id="patch_87">
    <path d="M 160.464125 273.312 
L 161.546307 273.312 
L 161.546307 272.592681 
L 160.464125 272.592681 
z
" clip-path="url(#p6093d0a43f)" style="fill: #1f77b4"/>
   </g>
   <g id="patch_88">
    <path d="M 161.546307 273.312 
L 162.628489 273.312 
L 162.628489 271.993249 
L 161.546307 271.993249 
z
" clip-path="url(#p6093d0a43f)" style="fill: #1f77b4"/>
   </g>
   <g id="patch_89">
    <path d="M 162.628489 273.312 
L 163.71067 273.312 
L 163.71067 270.194952 
L 162.628489 270.194952 
z
" clip-path="url(#p6093d0a43f)" style="fill: #1f77b4"/>
   </g>
   <g id="patch_90">
    <path d="M 163.71067 273.312 
L 164.792852 273.312 
L 164.792852 272.712568 
L 163.71067 272.712568 
z
" clip-path="url(#p6093d0a43f)" style="fill: #1f77b4"/>
   </g>
   <g id="patch_91">
    <path d="M 164.792852 273.312 
L 165.875034 273.312 
L 165.875034 272.832454 
L 164.792852 272.832454 
z
" clip-path="url(#p6093d0a43f)" style="fill: #1f77b4"/>
   </g>
   <g id="patch_92">
    <path d="M 165.875034 273.312 
L 166.957216 273.312 
L 166.957216 273.072227 
L 165.875034 273.072227 
z
" clip-path="url(#p6093d0a43f)" style="fill: #1f77b4"/>
   </g>
   <g id="patch_93">
    <path d="M 166.957216 273.312 
L 168.039398 273.312 
L 168.039398 270.914271 
L 166.957216 270.914271 
z
" clip-path="url(#p6093d0a43f)" style="fill: #1f77b4"/>
   </g>
   <g id="patch_94">
    <path d="M 168.039398 273.312 
L 169.12158 273.312 
L 169.12158 273.192114 
L 168.039398 273.192114 
z
" clip-path="url(#p6093d0a43f)" style="fill: #1f77b4"/>
   </g>
   <g id="patch_95">
    <path d="M 169.12158 273.312 
L 170.203761 273.312 
L 170.203761 272.472795 
L 169.12158 272.472795 
z
" clip-path="url(#p6093d0a43f)" style="fill: #1f77b4"/>
   </g>
   <g id="patch_96">
    <path d="M 170.203761 273.312 
L 171.285943 273.312 
L 171.285943 273.192114 
L 170.203761 273.192114 
z
" clip-path="url(#p6093d0a43f)" style="fill: #1f77b4"/>
   </g>
   <g id="patch_97">
    <path d="M 171.285943 273.312 
L 172.368125 273.312 
L 172.368125 272.712568 
L 171.285943 272.712568 
z
" clip-path="url(#p6093d0a43f)" style="fill: #1f77b4"/>
   </g>
   <g id="patch_98">
    <path d="M 172.368125 273.312 
L 173.450307 273.312 
L 173.450307 273.312 
L 172.368125 273.312 
z
" clip-path="url(#p6093d0a43f)" style="fill: #1f77b4"/>
   </g>
   <g id="patch_99">
    <path d="M 173.450307 273.312 
L 174.532489 273.312 
L 174.532489 273.192114 
L 173.450307 273.192114 
z
" clip-path="url(#p6093d0a43f)" style="fill: #1f77b4"/>
   </g>
   <g id="patch_100">
    <path d="M 174.532489 273.312 
L 175.61467 273.312 
L 175.61467 273.192114 
L 174.532489 273.192114 
z
" clip-path="url(#p6093d0a43f)" style="fill: #1f77b4"/>
   </g>
   <g id="patch_101">
    <path d="M 175.61467 273.312 
L 176.696852 273.312 
L 176.696852 272.832454 
L 175.61467 272.832454 
z
" clip-path="url(#p6093d0a43f)" style="fill: #1f77b4"/>
   </g>
   <g id="patch_102">
    <path d="M 176.696852 273.312 
L 177.779034 273.312 
L 177.779034 272.352908 
L 176.696852 272.352908 
z
" clip-path="url(#p6093d0a43f)" style="fill: #1f77b4"/>
   </g>
   <g id="patch_103">
    <path d="M 177.779034 273.312 
L 178.861216 273.312 
L 178.861216 272.952341 
L 177.779034 272.952341 
z
" clip-path="url(#p6093d0a43f)" style="fill: #1f77b4"/>
   </g>
   <g id="patch_104">
    <path d="M 178.861216 273.312 
L 179.943398 273.312 
L 179.943398 272.352908 
L 178.861216 272.352908 
z
" clip-path="url(#p6093d0a43f)" style="fill: #1f77b4"/>
   </g>
   <g id="patch_105">
    <path d="M 179.943398 273.312 
L 181.02558 273.312 
L 181.02558 272.832454 
L 179.943398 272.832454 
z
" clip-path="url(#p6093d0a43f)" style="fill: #1f77b4"/>
   </g>
   <g id="patch_106">
    <path d="M 181.02558 273.312 
L 182.107761 273.312 
L 182.107761 273.312 
L 181.02558 273.312 
z
" clip-path="url(#p6093d0a43f)" style="fill: #1f77b4"/>
   </g>
   <g id="patch_107">
    <path d="M 182.107761 273.312 
L 183.189943 273.312 
L 183.189943 272.832454 
L 182.107761 272.832454 
z
" clip-path="url(#p6093d0a43f)" style="fill: #1f77b4"/>
   </g>
   <g id="patch_108">
    <path d="M 183.189943 273.312 
L 184.272125 273.312 
L 184.272125 272.952341 
L 183.189943 272.952341 
z
" clip-path="url(#p6093d0a43f)" style="fill: #1f77b4"/>
   </g>
   <g id="patch_109">
    <path d="M 184.272125 273.312 
L 185.354307 273.312 
L 185.354307 273.312 
L 184.272125 273.312 
z
" clip-path="url(#p6093d0a43f)" style="fill: #1f77b4"/>
   </g>
   <g id="patch_110">
    <path d="M 185.354307 273.312 
L 186.436489 273.312 
L 186.436489 273.072227 
L 185.354307 273.072227 
z
" clip-path="url(#p6093d0a43f)" style="fill: #1f77b4"/>
   </g>
   <g id="patch_111">
    <path d="M 186.436489 273.312 
L 187.51867 273.312 
L 187.51867 273.192114 
L 186.436489 273.192114 
z
" clip-path="url(#p6093d0a43f)" style="fill: #1f77b4"/>
   </g>
   <g id="patch_112">
    <path d="M 187.51867 273.312 
L 188.600852 273.312 
L 188.600852 271.034157 
L 187.51867 271.034157 
z
" clip-path="url(#p6093d0a43f)" style="fill: #1f77b4"/>
   </g>
   <g id="patch_113">
    <path d="M 188.600852 273.312 
L 189.683034 273.312 
L 189.683034 273.192114 
L 188.600852 273.192114 
z
" clip-path="url(#p6093d0a43f)" style="fill: #1f77b4"/>
   </g>
   <g id="patch_114">
    <path d="M 189.683034 273.312 
L 190.765216 273.312 
L 190.765216 272.952341 
L 189.683034 272.952341 
z
" clip-path="url(#p6093d0a43f)" style="fill: #1f77b4"/>
   </g>
   <g id="patch_115">
    <path d="M 190.765216 273.312 
L 191.847398 273.312 
L 191.847398 273.312 
L 190.765216 273.312 
z
" clip-path="url(#p6093d0a43f)" style="fill: #1f77b4"/>
   </g>
   <g id="patch_116">
    <path d="M 191.847398 273.312 
L 192.92958 273.312 
L 192.92958 272.472795 
L 191.847398 272.472795 
z
" clip-path="url(#p6093d0a43f)" style="fill: #1f77b4"/>
   </g>
   <g id="patch_117">
    <path d="M 192.92958 273.312 
L 194.011761 273.312 
L 194.011761 273.312 
L 192.92958 273.312 
z
" clip-path="url(#p6093d0a43f)" style="fill: #1f77b4"/>
   </g>
   <g id="patch_118">
    <path d="M 194.011761 273.312 
L 195.093943 273.312 
L 195.093943 273.312 
L 194.011761 273.312 
z
" clip-path="url(#p6093d0a43f)" style="fill: #1f77b4"/>
   </g>
   <g id="patch_119">
    <path d="M 195.093943 273.312 
L 196.176125 273.312 
L 196.176125 272.832454 
L 195.093943 272.832454 
z
" clip-path="url(#p6093d0a43f)" style="fill: #1f77b4"/>
   </g>
   <g id="patch_120">
    <path d="M 196.176125 273.312 
L 197.258307 273.312 
L 197.258307 273.312 
L 196.176125 273.312 
z
" clip-path="url(#p6093d0a43f)" style="fill: #1f77b4"/>
   </g>
   <g id="patch_121">
    <path d="M 197.258307 273.312 
L 198.340489 273.312 
L 198.340489 272.592681 
L 197.258307 272.592681 
z
" clip-path="url(#p6093d0a43f)" style="fill: #1f77b4"/>
   </g>
   <g id="patch_122">
    <path d="M 198.340489 273.312 
L 199.42267 273.312 
L 199.42267 272.952341 
L 198.340489 272.952341 
z
" clip-path="url(#p6093d0a43f)" style="fill: #1f77b4"/>
   </g>
   <g id="patch_123">
    <path d="M 199.42267 273.312 
L 200.504852 273.312 
L 200.504852 272.233022 
L 199.42267 272.233022 
z
" clip-path="url(#p6093d0a43f)" style="fill: #1f77b4"/>
   </g>
   <g id="patch_124">
    <path d="M 200.504852 273.312 
L 201.587034 273.312 
L 201.587034 273.192114 
L 200.504852 273.192114 
z
" clip-path="url(#p6093d0a43f)" style="fill: #1f77b4"/>
   </g>
   <g id="patch_125">
    <path d="M 201.587034 273.312 
L 202.669216 273.312 
L 202.669216 272.952341 
L 201.587034 272.952341 
z
" clip-path="url(#p6093d0a43f)" style="fill: #1f77b4"/>
   </g>
   <g id="patch_126">
    <path d="M 202.669216 273.312 
L 203.751398 273.312 
L 203.751398 273.192114 
L 202.669216 273.192114 
z
" clip-path="url(#p6093d0a43f)" style="fill: #1f77b4"/>
   </g>
   <g id="patch_127">
    <path d="M 203.751398 273.312 
L 204.83358 273.312 
L 204.83358 272.952341 
L 203.751398 272.952341 
z
" clip-path="url(#p6093d0a43f)" style="fill: #1f77b4"/>
   </g>
   <g id="patch_128">
    <path d="M 204.83358 273.312 
L 205.915761 273.312 
L 205.915761 272.592681 
L 204.83358 272.592681 
z
" clip-path="url(#p6093d0a43f)" style="fill: #1f77b4"/>
   </g>
   <g id="patch_129">
    <path d="M 205.915761 273.312 
L 206.997943 273.312 
L 206.997943 272.832454 
L 205.915761 272.832454 
z
" clip-path="url(#p6093d0a43f)" style="fill: #1f77b4"/>
   </g>
   <g id="patch_130">
    <path d="M 206.997943 273.312 
L 208.080125 273.312 
L 208.080125 272.832454 
L 206.997943 272.832454 
z
" clip-path="url(#p6093d0a43f)" style="fill: #1f77b4"/>
   </g>
   <g id="patch_131">
    <path d="M 208.080125 273.312 
L 209.162307 273.312 
L 209.162307 273.312 
L 208.080125 273.312 
z
" clip-path="url(#p6093d0a43f)" style="fill: #1f77b4"/>
   </g>
   <g id="patch_132">
    <path d="M 209.162307 273.312 
L 210.244489 273.312 
L 210.244489 273.312 
L 209.162307 273.312 
z
" clip-path="url(#p6093d0a43f)" style="fill: #1f77b4"/>
   </g>
   <g id="patch_133">
    <path d="M 210.244489 273.312 
L 211.32667 273.312 
L 211.32667 272.832454 
L 210.244489 272.832454 
z
" clip-path="url(#p6093d0a43f)" style="fill: #1f77b4"/>
   </g>
   <g id="patch_134">
    <path d="M 211.32667 273.312 
L 212.408852 273.312 
L 212.408852 272.832454 
L 211.32667 272.832454 
z
" clip-path="url(#p6093d0a43f)" style="fill: #1f77b4"/>
   </g>
   <g id="patch_135">
    <path d="M 212.408852 273.312 
L 213.491034 273.312 
L 213.491034 273.312 
L 212.408852 273.312 
z
" clip-path="url(#p6093d0a43f)" style="fill: #1f77b4"/>
   </g>
   <g id="patch_136">
    <path d="M 213.491034 273.312 
L 214.573216 273.312 
L 214.573216 273.192114 
L 213.491034 273.192114 
z
" clip-path="url(#p6093d0a43f)" style="fill: #1f77b4"/>
   </g>
   <g id="patch_137">
    <path d="M 214.573216 273.312 
L 215.655398 273.312 
L 215.655398 273.312 
L 214.573216 273.312 
z
" clip-path="url(#p6093d0a43f)" style="fill: #1f77b4"/>
   </g>
   <g id="patch_138">
    <path d="M 215.655398 273.312 
L 216.73758 273.312 
L 216.73758 273.072227 
L 215.655398 273.072227 
z
" clip-path="url(#p6093d0a43f)" style="fill: #1f77b4"/>
   </g>
   <g id="patch_139">
    <path d="M 216.73758 273.312 
L 217.819761 273.312 
L 217.819761 273.312 
L 216.73758 273.312 
z
" clip-path="url(#p6093d0a43f)" style="fill: #1f77b4"/>
   </g>
   <g id="patch_140">
    <path d="M 217.819761 273.312 
L 218.901943 273.312 
L 218.901943 273.072227 
L 217.819761 273.072227 
z
" clip-path="url(#p6093d0a43f)" style="fill: #1f77b4"/>
   </g>
   <g id="patch_141">
    <path d="M 218.901943 273.312 
L 219.984125 273.312 
L 219.984125 273.192114 
L 218.901943 273.192114 
z
" clip-path="url(#p6093d0a43f)" style="fill: #1f77b4"/>
   </g>
   <g id="patch_142">
    <path d="M 219.984125 273.312 
L 221.066307 273.312 
L 221.066307 273.072227 
L 219.984125 273.072227 
z
" clip-path="url(#p6093d0a43f)" style="fill: #1f77b4"/>
   </g>
   <g id="patch_143">
    <path d="M 221.066307 273.312 
L 222.148489 273.312 
L 222.148489 273.312 
L 221.066307 273.312 
z
" clip-path="url(#p6093d0a43f)" style="fill: #1f77b4"/>
   </g>
   <g id="patch_144">
    <path d="M 222.148489 273.312 
L 223.23067 273.312 
L 223.23067 273.312 
L 222.148489 273.312 
z
" clip-path="url(#p6093d0a43f)" style="fill: #1f77b4"/>
   </g>
   <g id="patch_145">
    <path d="M 223.23067 273.312 
L 224.312852 273.312 
L 224.312852 273.312 
L 223.23067 273.312 
z
" clip-path="url(#p6093d0a43f)" style="fill: #1f77b4"/>
   </g>
   <g id="patch_146">
    <path d="M 224.312852 273.312 
L 225.395034 273.312 
L 225.395034 273.312 
L 224.312852 273.312 
z
" clip-path="url(#p6093d0a43f)" style="fill: #1f77b4"/>
   </g>
   <g id="patch_147">
    <path d="M 225.395034 273.312 
L 226.477216 273.312 
L 226.477216 273.312 
L 225.395034 273.312 
z
" clip-path="url(#p6093d0a43f)" style="fill: #1f77b4"/>
   </g>
   <g id="patch_148">
    <path d="M 226.477216 273.312 
L 227.559398 273.312 
L 227.559398 273.312 
L 226.477216 273.312 
z
" clip-path="url(#p6093d0a43f)" style="fill: #1f77b4"/>
   </g>
   <g id="patch_149">
    <path d="M 227.559398 273.312 
L 228.64158 273.312 
L 228.64158 272.472795 
L 227.559398 272.472795 
z
" clip-path="url(#p6093d0a43f)" style="fill: #1f77b4"/>
   </g>
   <g id="patch_150">
    <path d="M 228.64158 273.312 
L 229.723761 273.312 
L 229.723761 273.072227 
L 228.64158 273.072227 
z
" clip-path="url(#p6093d0a43f)" style="fill: #1f77b4"/>
   </g>
   <g id="patch_151">
    <path d="M 229.723761 273.312 
L 230.805943 273.312 
L 230.805943 273.312 
L 229.723761 273.312 
z
" clip-path="url(#p6093d0a43f)" style="fill: #1f77b4"/>
   </g>
   <g id="patch_152">
    <path d="M 230.805943 273.312 
L 231.888125 273.312 
L 231.888125 273.312 
L 230.805943 273.312 
z
" clip-path="url(#p6093d0a43f)" style="fill: #1f77b4"/>
   </g>
   <g id="patch_153">
    <path d="M 231.888125 273.312 
L 232.970307 273.312 
L 232.970307 272.592681 
L 231.888125 272.592681 
z
" clip-path="url(#p6093d0a43f)" style="fill: #1f77b4"/>
   </g>
   <g id="patch_154">
    <path d="M 232.970307 273.312 
L 234.052489 273.312 
L 234.052489 273.192114 
L 232.970307 273.192114 
z
" clip-path="url(#p6093d0a43f)" style="fill: #1f77b4"/>
   </g>
   <g id="patch_155">
    <path d="M 234.052489 273.312 
L 235.13467 273.312 
L 235.13467 273.312 
L 234.052489 273.312 
z
" clip-path="url(#p6093d0a43f)" style="fill: #1f77b4"/>
   </g>
   <g id="patch_156">
    <path d="M 235.13467 273.312 
L 236.216852 273.312 
L 236.216852 273.312 
L 235.13467 273.312 
z
" clip-path="url(#p6093d0a43f)" style="fill: #1f77b4"/>
   </g>
   <g id="patch_157">
    <path d="M 236.216852 273.312 
L 237.299034 273.312 
L 237.299034 273.192114 
L 236.216852 273.192114 
z
" clip-path="url(#p6093d0a43f)" style="fill: #1f77b4"/>
   </g>
   <g id="patch_158">
    <path d="M 237.299034 273.312 
L 238.381216 273.312 
L 238.381216 273.312 
L 237.299034 273.312 
z
" clip-path="url(#p6093d0a43f)" style="fill: #1f77b4"/>
   </g>
   <g id="patch_159">
    <path d="M 238.381216 273.312 
L 239.463398 273.312 
L 239.463398 273.312 
L 238.381216 273.312 
z
" clip-path="url(#p6093d0a43f)" style="fill: #1f77b4"/>
   </g>
   <g id="patch_160">
    <path d="M 239.463398 273.312 
L 240.54558 273.312 
L 240.54558 273.192114 
L 239.463398 273.192114 
z
" clip-path="url(#p6093d0a43f)" style="fill: #1f77b4"/>
   </g>
   <g id="patch_161">
    <path d="M 240.54558 273.312 
L 241.627761 273.312 
L 241.627761 273.312 
L 240.54558 273.312 
z
" clip-path="url(#p6093d0a43f)" style="fill: #1f77b4"/>
   </g>
   <g id="patch_162">
    <path d="M 241.627761 273.312 
L 242.709943 273.312 
L 242.709943 273.312 
L 241.627761 273.312 
z
" clip-path="url(#p6093d0a43f)" style="fill: #1f77b4"/>
   </g>
   <g id="patch_163">
    <path d="M 242.709943 273.312 
L 243.792125 273.312 
L 243.792125 273.312 
L 242.709943 273.312 
z
" clip-path="url(#p6093d0a43f)" style="fill: #1f77b4"/>
   </g>
   <g id="patch_164">
    <path d="M 243.792125 273.312 
L 244.874307 273.312 
L 244.874307 273.312 
L 243.792125 273.312 
z
" clip-path="url(#p6093d0a43f)" style="fill: #1f77b4"/>
   </g>
   <g id="patch_165">
    <path d="M 244.874307 273.312 
L 245.956489 273.312 
L 245.956489 273.312 
L 244.874307 273.312 
z
" clip-path="url(#p6093d0a43f)" style="fill: #1f77b4"/>
   </g>
   <g id="patch_166">
    <path d="M 245.956489 273.312 
L 247.03867 273.312 
L 247.03867 273.312 
L 245.956489 273.312 
z
" clip-path="url(#p6093d0a43f)" style="fill: #1f77b4"/>
   </g>
   <g id="patch_167">
    <path d="M 247.03867 273.312 
L 248.120852 273.312 
L 248.120852 273.312 
L 247.03867 273.312 
z
" clip-path="url(#p6093d0a43f)" style="fill: #1f77b4"/>
   </g>
   <g id="patch_168">
    <path d="M 248.120852 273.312 
L 249.203034 273.312 
L 249.203034 273.312 
L 248.120852 273.312 
z
" clip-path="url(#p6093d0a43f)" style="fill: #1f77b4"/>
   </g>
   <g id="patch_169">
    <path d="M 249.203034 273.312 
L 250.285216 273.312 
L 250.285216 273.312 
L 249.203034 273.312 
z
" clip-path="url(#p6093d0a43f)" style="fill: #1f77b4"/>
   </g>
   <g id="patch_170">
    <path d="M 250.285216 273.312 
L 251.367398 273.312 
L 251.367398 273.312 
L 250.285216 273.312 
z
" clip-path="url(#p6093d0a43f)" style="fill: #1f77b4"/>
   </g>
   <g id="patch_171">
    <path d="M 251.367398 273.312 
L 252.44958 273.312 
L 252.44958 273.312 
L 251.367398 273.312 
z
" clip-path="url(#p6093d0a43f)" style="fill: #1f77b4"/>
   </g>
   <g id="patch_172">
    <path d="M 252.44958 273.312 
L 253.531761 273.312 
L 253.531761 273.312 
L 252.44958 273.312 
z
" clip-path="url(#p6093d0a43f)" style="fill: #1f77b4"/>
   </g>
   <g id="patch_173">
    <path d="M 253.531761 273.312 
L 254.613943 273.312 
L 254.613943 273.312 
L 253.531761 273.312 
z
" clip-path="url(#p6093d0a43f)" style="fill: #1f77b4"/>
   </g>
   <g id="patch_174">
    <path d="M 254.613943 273.312 
L 255.696125 273.312 
L 255.696125 273.312 
L 254.613943 273.312 
z
" clip-path="url(#p6093d0a43f)" style="fill: #1f77b4"/>
   </g>
   <g id="patch_175">
    <path d="M 255.696125 273.312 
L 256.778307 273.312 
L 256.778307 273.312 
L 255.696125 273.312 
z
" clip-path="url(#p6093d0a43f)" style="fill: #1f77b4"/>
   </g>
   <g id="patch_176">
    <path d="M 256.778307 273.312 
L 257.860489 273.312 
L 257.860489 273.312 
L 256.778307 273.312 
z
" clip-path="url(#p6093d0a43f)" style="fill: #1f77b4"/>
   </g>
   <g id="patch_177">
    <path d="M 257.860489 273.312 
L 258.94267 273.312 
L 258.94267 273.312 
L 257.860489 273.312 
z
" clip-path="url(#p6093d0a43f)" style="fill: #1f77b4"/>
   </g>
   <g id="patch_178">
    <path d="M 258.94267 273.312 
L 260.024852 273.312 
L 260.024852 273.312 
L 258.94267 273.312 
z
" clip-path="url(#p6093d0a43f)" style="fill: #1f77b4"/>
   </g>
   <g id="patch_179">
    <path d="M 260.024852 273.312 
L 261.107034 273.312 
L 261.107034 273.312 
L 260.024852 273.312 
z
" clip-path="url(#p6093d0a43f)" style="fill: #1f77b4"/>
   </g>
   <g id="patch_180">
    <path d="M 261.107034 273.312 
L 262.189216 273.312 
L 262.189216 273.312 
L 261.107034 273.312 
z
" clip-path="url(#p6093d0a43f)" style="fill: #1f77b4"/>
   </g>
   <g id="patch_181">
    <path d="M 262.189216 273.312 
L 263.271398 273.312 
L 263.271398 273.312 
L 262.189216 273.312 
z
" clip-path="url(#p6093d0a43f)" style="fill: #1f77b4"/>
   </g>
   <g id="patch_182">
    <path d="M 263.271398 273.312 
L 264.35358 273.312 
L 264.35358 273.312 
L 263.271398 273.312 
z
" clip-path="url(#p6093d0a43f)" style="fill: #1f77b4"/>
   </g>
   <g id="patch_183">
    <path d="M 264.35358 273.312 
L 265.435761 273.312 
L 265.435761 273.312 
L 264.35358 273.312 
z
" clip-path="url(#p6093d0a43f)" style="fill: #1f77b4"/>
   </g>
   <g id="patch_184">
    <path d="M 265.435761 273.312 
L 266.517943 273.312 
L 266.517943 273.312 
L 265.435761 273.312 
z
" clip-path="url(#p6093d0a43f)" style="fill: #1f77b4"/>
   </g>
   <g id="patch_185">
    <path d="M 266.517943 273.312 
L 267.600125 273.312 
L 267.600125 273.312 
L 266.517943 273.312 
z
" clip-path="url(#p6093d0a43f)" style="fill: #1f77b4"/>
   </g>
   <g id="patch_186">
    <path d="M 267.600125 273.312 
L 268.682307 273.312 
L 268.682307 272.592681 
L 267.600125 272.592681 
z
" clip-path="url(#p6093d0a43f)" style="fill: #1f77b4"/>
   </g>
   <g id="patch_187">
    <path d="M 268.682307 273.312 
L 269.764489 273.312 
L 269.764489 273.312 
L 268.682307 273.312 
z
" clip-path="url(#p6093d0a43f)" style="fill: #1f77b4"/>
   </g>
   <g id="patch_188">
    <path d="M 269.764489 273.312 
L 270.84667 273.312 
L 270.84667 273.312 
L 269.764489 273.312 
z
" clip-path="url(#p6093d0a43f)" style="fill: #1f77b4"/>
   </g>
   <g id="patch_189">
    <path d="M 270.84667 273.312 
L 271.928852 273.312 
L 271.928852 273.312 
L 270.84667 273.312 
z
" clip-path="url(#p6093d0a43f)" style="fill: #1f77b4"/>
   </g>
   <g id="patch_190">
    <path d="M 271.928852 273.312 
L 273.011034 273.312 
L 273.011034 273.192114 
L 271.928852 273.192114 
z
" clip-path="url(#p6093d0a43f)" style="fill: #1f77b4"/>
   </g>
   <g id="patch_191">
    <path d="M 273.011034 273.312 
L 274.093216 273.312 
L 274.093216 273.192114 
L 273.011034 273.192114 
z
" clip-path="url(#p6093d0a43f)" style="fill: #1f77b4"/>
   </g>
   <g id="patch_192">
    <path d="M 274.093216 273.312 
L 275.175398 273.312 
L 275.175398 273.312 
L 274.093216 273.312 
z
" clip-path="url(#p6093d0a43f)" style="fill: #1f77b4"/>
   </g>
   <g id="patch_193">
    <path d="M 275.175398 273.312 
L 276.25758 273.312 
L 276.25758 273.312 
L 275.175398 273.312 
z
" clip-path="url(#p6093d0a43f)" style="fill: #1f77b4"/>
   </g>
   <g id="patch_194">
    <path d="M 276.25758 273.312 
L 277.339761 273.312 
L 277.339761 273.312 
L 276.25758 273.312 
z
" clip-path="url(#p6093d0a43f)" style="fill: #1f77b4"/>
   </g>
   <g id="patch_195">
    <path d="M 277.339761 273.312 
L 278.421943 273.312 
L 278.421943 273.312 
L 277.339761 273.312 
z
" clip-path="url(#p6093d0a43f)" style="fill: #1f77b4"/>
   </g>
   <g id="patch_196">
    <path d="M 278.421943 273.312 
L 279.504125 273.312 
L 279.504125 272.952341 
L 278.421943 272.952341 
z
" clip-path="url(#p6093d0a43f)" style="fill: #1f77b4"/>
   </g>
   <g id="patch_197">
    <path d="M 279.504125 273.312 
L 280.586307 273.312 
L 280.586307 273.312 
L 279.504125 273.312 
z
" clip-path="url(#p6093d0a43f)" style="fill: #1f77b4"/>
   </g>
   <g id="patch_198">
    <path d="M 280.586307 273.312 
L 281.668489 273.312 
L 281.668489 273.312 
L 280.586307 273.312 
z
" clip-path="url(#p6093d0a43f)" style="fill: #1f77b4"/>
   </g>
   <g id="patch_199">
    <path d="M 281.668489 273.312 
L 282.75067 273.312 
L 282.75067 273.312 
L 281.668489 273.312 
z
" clip-path="url(#p6093d0a43f)" style="fill: #1f77b4"/>
   </g>
   <g id="patch_200">
    <path d="M 282.75067 273.312 
L 283.832852 273.312 
L 283.832852 273.312 
L 282.75067 273.312 
z
" clip-path="url(#p6093d0a43f)" style="fill: #1f77b4"/>
   </g>
   <g id="patch_201">
    <path d="M 283.832852 273.312 
L 284.915034 273.312 
L 284.915034 273.312 
L 283.832852 273.312 
z
" clip-path="url(#p6093d0a43f)" style="fill: #1f77b4"/>
   </g>
   <g id="patch_202">
    <path d="M 284.915034 273.312 
L 285.997216 273.312 
L 285.997216 273.312 
L 284.915034 273.312 
z
" clip-path="url(#p6093d0a43f)" style="fill: #1f77b4"/>
   </g>
   <g id="patch_203">
    <path d="M 285.997216 273.312 
L 287.079398 273.312 
L 287.079398 273.312 
L 285.997216 273.312 
z
" clip-path="url(#p6093d0a43f)" style="fill: #1f77b4"/>
   </g>
   <g id="patch_204">
    <path d="M 287.079398 273.312 
L 288.16158 273.312 
L 288.16158 273.312 
L 287.079398 273.312 
z
" clip-path="url(#p6093d0a43f)" style="fill: #1f77b4"/>
   </g>
   <g id="patch_205">
    <path d="M 288.16158 273.312 
L 289.243761 273.312 
L 289.243761 273.072227 
L 288.16158 273.072227 
z
" clip-path="url(#p6093d0a43f)" style="fill: #1f77b4"/>
   </g>
   <g id="patch_206">
    <path d="M 289.243761 273.312 
L 290.325943 273.312 
L 290.325943 273.312 
L 289.243761 273.312 
z
" clip-path="url(#p6093d0a43f)" style="fill: #1f77b4"/>
   </g>
   <g id="patch_207">
    <path d="M 290.325943 273.312 
L 291.408125 273.312 
L 291.408125 273.312 
L 290.325943 273.312 
z
" clip-path="url(#p6093d0a43f)" style="fill: #1f77b4"/>
   </g>
   <g id="patch_208">
    <path d="M 291.408125 273.312 
L 292.490307 273.312 
L 292.490307 273.312 
L 291.408125 273.312 
z
" clip-path="url(#p6093d0a43f)" style="fill: #1f77b4"/>
   </g>
   <g id="patch_209">
    <path d="M 292.490307 273.312 
L 293.572489 273.312 
L 293.572489 272.952341 
L 292.490307 272.952341 
z
" clip-path="url(#p6093d0a43f)" style="fill: #1f77b4"/>
   </g>
   <g id="patch_210">
    <path d="M 293.572489 273.312 
L 294.65467 273.312 
L 294.65467 273.312 
L 293.572489 273.312 
z
" clip-path="url(#p6093d0a43f)" style="fill: #1f77b4"/>
   </g>
   <g id="patch_211">
    <path d="M 294.65467 273.312 
L 295.736852 273.312 
L 295.736852 273.312 
L 294.65467 273.312 
z
" clip-path="url(#p6093d0a43f)" style="fill: #1f77b4"/>
   </g>
   <g id="patch_212">
    <path d="M 295.736852 273.312 
L 296.819034 273.312 
L 296.819034 273.312 
L 295.736852 273.312 
z
" clip-path="url(#p6093d0a43f)" style="fill: #1f77b4"/>
   </g>
   <g id="patch_213">
    <path d="M 296.819034 273.312 
L 297.901216 273.312 
L 297.901216 273.312 
L 296.819034 273.312 
z
" clip-path="url(#p6093d0a43f)" style="fill: #1f77b4"/>
   </g>
   <g id="patch_214">
    <path d="M 297.901216 273.312 
L 298.983398 273.312 
L 298.983398 273.312 
L 297.901216 273.312 
z
" clip-path="url(#p6093d0a43f)" style="fill: #1f77b4"/>
   </g>
   <g id="patch_215">
    <path d="M 298.983398 273.312 
L 300.06558 273.312 
L 300.06558 273.312 
L 298.983398 273.312 
z
" clip-path="url(#p6093d0a43f)" style="fill: #1f77b4"/>
   </g>
   <g id="patch_216">
    <path d="M 300.06558 273.312 
L 301.147761 273.312 
L 301.147761 273.312 
L 300.06558 273.312 
z
" clip-path="url(#p6093d0a43f)" style="fill: #1f77b4"/>
   </g>
   <g id="patch_217">
    <path d="M 301.147761 273.312 
L 302.229943 273.312 
L 302.229943 273.312 
L 301.147761 273.312 
z
" clip-path="url(#p6093d0a43f)" style="fill: #1f77b4"/>
   </g>
   <g id="patch_218">
    <path d="M 302.229943 273.312 
L 303.312125 273.312 
L 303.312125 273.312 
L 302.229943 273.312 
z
" clip-path="url(#p6093d0a43f)" style="fill: #1f77b4"/>
   </g>
   <g id="patch_219">
    <path d="M 303.312125 273.312 
L 304.394307 273.312 
L 304.394307 273.312 
L 303.312125 273.312 
z
" clip-path="url(#p6093d0a43f)" style="fill: #1f77b4"/>
   </g>
   <g id="patch_220">
    <path d="M 304.394307 273.312 
L 305.476489 273.312 
L 305.476489 273.312 
L 304.394307 273.312 
z
" clip-path="url(#p6093d0a43f)" style="fill: #1f77b4"/>
   </g>
   <g id="patch_221">
    <path d="M 305.476489 273.312 
L 306.55867 273.312 
L 306.55867 273.312 
L 305.476489 273.312 
z
" clip-path="url(#p6093d0a43f)" style="fill: #1f77b4"/>
   </g>
   <g id="patch_222">
    <path d="M 306.55867 273.312 
L 307.640852 273.312 
L 307.640852 273.312 
L 306.55867 273.312 
z
" clip-path="url(#p6093d0a43f)" style="fill: #1f77b4"/>
   </g>
   <g id="patch_223">
    <path d="M 307.640852 273.312 
L 308.723034 273.312 
L 308.723034 273.312 
L 307.640852 273.312 
z
" clip-path="url(#p6093d0a43f)" style="fill: #1f77b4"/>
   </g>
   <g id="patch_224">
    <path d="M 308.723034 273.312 
L 309.805216 273.312 
L 309.805216 273.312 
L 308.723034 273.312 
z
" clip-path="url(#p6093d0a43f)" style="fill: #1f77b4"/>
   </g>
   <g id="patch_225">
    <path d="M 309.805216 273.312 
L 310.887398 273.312 
L 310.887398 273.072227 
L 309.805216 273.072227 
z
" clip-path="url(#p6093d0a43f)" style="fill: #1f77b4"/>
   </g>
   <g id="patch_226">
    <path d="M 310.887398 273.312 
L 311.96958 273.312 
L 311.96958 273.312 
L 310.887398 273.312 
z
" clip-path="url(#p6093d0a43f)" style="fill: #1f77b4"/>
   </g>
   <g id="patch_227">
    <path d="M 311.96958 273.312 
L 313.051761 273.312 
L 313.051761 273.192114 
L 311.96958 273.192114 
z
" clip-path="url(#p6093d0a43f)" style="fill: #1f77b4"/>
   </g>
   <g id="patch_228">
    <path d="M 313.051761 273.312 
L 314.133943 273.312 
L 314.133943 273.312 
L 313.051761 273.312 
z
" clip-path="url(#p6093d0a43f)" style="fill: #1f77b4"/>
   </g>
   <g id="patch_229">
    <path d="M 314.133943 273.312 
L 315.216125 273.312 
L 315.216125 273.312 
L 314.133943 273.312 
z
" clip-path="url(#p6093d0a43f)" style="fill: #1f77b4"/>
   </g>
   <g id="patch_230">
    <path d="M 315.216125 273.312 
L 316.298307 273.312 
L 316.298307 273.312 
L 315.216125 273.312 
z
" clip-path="url(#p6093d0a43f)" style="fill: #1f77b4"/>
   </g>
   <g id="patch_231">
    <path d="M 316.298307 273.312 
L 317.380489 273.312 
L 317.380489 273.312 
L 316.298307 273.312 
z
" clip-path="url(#p6093d0a43f)" style="fill: #1f77b4"/>
   </g>
   <g id="patch_232">
    <path d="M 317.380489 273.312 
L 318.46267 273.312 
L 318.46267 273.312 
L 317.380489 273.312 
z
" clip-path="url(#p6093d0a43f)" style="fill: #1f77b4"/>
   </g>
   <g id="patch_233">
    <path d="M 318.46267 273.312 
L 319.544852 273.312 
L 319.544852 273.312 
L 318.46267 273.312 
z
" clip-path="url(#p6093d0a43f)" style="fill: #1f77b4"/>
   </g>
   <g id="patch_234">
    <path d="M 319.544852 273.312 
L 320.627034 273.312 
L 320.627034 273.312 
L 319.544852 273.312 
z
" clip-path="url(#p6093d0a43f)" style="fill: #1f77b4"/>
   </g>
   <g id="patch_235">
    <path d="M 320.627034 273.312 
L 321.709216 273.312 
L 321.709216 273.312 
L 320.627034 273.312 
z
" clip-path="url(#p6093d0a43f)" style="fill: #1f77b4"/>
   </g>
   <g id="patch_236">
    <path d="M 321.709216 273.312 
L 322.791398 273.312 
L 322.791398 273.312 
L 321.709216 273.312 
z
" clip-path="url(#p6093d0a43f)" style="fill: #1f77b4"/>
   </g>
   <g id="patch_237">
    <path d="M 322.791398 273.312 
L 323.87358 273.312 
L 323.87358 273.312 
L 322.791398 273.312 
z
" clip-path="url(#p6093d0a43f)" style="fill: #1f77b4"/>
   </g>
   <g id="patch_238">
    <path d="M 323.87358 273.312 
L 324.955761 273.312 
L 324.955761 273.312 
L 323.87358 273.312 
z
" clip-path="url(#p6093d0a43f)" style="fill: #1f77b4"/>
   </g>
   <g id="patch_239">
    <path d="M 324.955761 273.312 
L 326.037943 273.312 
L 326.037943 273.312 
L 324.955761 273.312 
z
" clip-path="url(#p6093d0a43f)" style="fill: #1f77b4"/>
   </g>
   <g id="patch_240">
    <path d="M 326.037943 273.312 
L 327.120125 273.312 
L 327.120125 273.312 
L 326.037943 273.312 
z
" clip-path="url(#p6093d0a43f)" style="fill: #1f77b4"/>
   </g>
   <g id="patch_241">
    <path d="M 327.120125 273.312 
L 328.202307 273.312 
L 328.202307 273.312 
L 327.120125 273.312 
z
" clip-path="url(#p6093d0a43f)" style="fill: #1f77b4"/>
   </g>
   <g id="patch_242">
    <path d="M 328.202307 273.312 
L 329.284489 273.312 
L 329.284489 273.312 
L 328.202307 273.312 
z
" clip-path="url(#p6093d0a43f)" style="fill: #1f77b4"/>
   </g>
   <g id="patch_243">
    <path d="M 329.284489 273.312 
L 330.36667 273.312 
L 330.36667 273.312 
L 329.284489 273.312 
z
" clip-path="url(#p6093d0a43f)" style="fill: #1f77b4"/>
   </g>
   <g id="patch_244">
    <path d="M 330.36667 273.312 
L 331.448852 273.312 
L 331.448852 273.312 
L 330.36667 273.312 
z
" clip-path="url(#p6093d0a43f)" style="fill: #1f77b4"/>
   </g>
   <g id="patch_245">
    <path d="M 331.448852 273.312 
L 332.531034 273.312 
L 332.531034 273.312 
L 331.448852 273.312 
z
" clip-path="url(#p6093d0a43f)" style="fill: #1f77b4"/>
   </g>
   <g id="patch_246">
    <path d="M 332.531034 273.312 
L 333.613216 273.312 
L 333.613216 273.312 
L 332.531034 273.312 
z
" clip-path="url(#p6093d0a43f)" style="fill: #1f77b4"/>
   </g>
   <g id="patch_247">
    <path d="M 333.613216 273.312 
L 334.695398 273.312 
L 334.695398 273.312 
L 333.613216 273.312 
z
" clip-path="url(#p6093d0a43f)" style="fill: #1f77b4"/>
   </g>
   <g id="patch_248">
    <path d="M 334.695398 273.312 
L 335.77758 273.312 
L 335.77758 273.312 
L 334.695398 273.312 
z
" clip-path="url(#p6093d0a43f)" style="fill: #1f77b4"/>
   </g>
   <g id="patch_249">
    <path d="M 335.77758 273.312 
L 336.859761 273.312 
L 336.859761 273.312 
L 335.77758 273.312 
z
" clip-path="url(#p6093d0a43f)" style="fill: #1f77b4"/>
   </g>
   <g id="patch_250">
    <path d="M 336.859761 273.312 
L 337.941943 273.312 
L 337.941943 273.312 
L 336.859761 273.312 
z
" clip-path="url(#p6093d0a43f)" style="fill: #1f77b4"/>
   </g>
   <g id="patch_251">
    <path d="M 337.941943 273.312 
L 339.024125 273.312 
L 339.024125 273.312 
L 337.941943 273.312 
z
" clip-path="url(#p6093d0a43f)" style="fill: #1f77b4"/>
   </g>
   <g id="patch_252">
    <path d="M 339.024125 273.312 
L 340.106307 273.312 
L 340.106307 273.312 
L 339.024125 273.312 
z
" clip-path="url(#p6093d0a43f)" style="fill: #1f77b4"/>
   </g>
   <g id="patch_253">
    <path d="M 340.106307 273.312 
L 341.188489 273.312 
L 341.188489 273.312 
L 340.106307 273.312 
z
" clip-path="url(#p6093d0a43f)" style="fill: #1f77b4"/>
   </g>
   <g id="patch_254">
    <path d="M 341.188489 273.312 
L 342.27067 273.312 
L 342.27067 273.312 
L 341.188489 273.312 
z
" clip-path="url(#p6093d0a43f)" style="fill: #1f77b4"/>
   </g>
   <g id="patch_255">
    <path d="M 342.27067 273.312 
L 343.352852 273.312 
L 343.352852 273.312 
L 342.27067 273.312 
z
" clip-path="url(#p6093d0a43f)" style="fill: #1f77b4"/>
   </g>
   <g id="patch_256">
    <path d="M 343.352852 273.312 
L 344.435034 273.312 
L 344.435034 273.312 
L 343.352852 273.312 
z
" clip-path="url(#p6093d0a43f)" style="fill: #1f77b4"/>
   </g>
   <g id="patch_257">
    <path d="M 344.435034 273.312 
L 345.517216 273.312 
L 345.517216 273.312 
L 344.435034 273.312 
z
" clip-path="url(#p6093d0a43f)" style="fill: #1f77b4"/>
   </g>
   <g id="patch_258">
    <path d="M 345.517216 273.312 
L 346.599398 273.312 
L 346.599398 273.312 
L 345.517216 273.312 
z
" clip-path="url(#p6093d0a43f)" style="fill: #1f77b4"/>
   </g>
   <g id="patch_259">
    <path d="M 346.599398 273.312 
L 347.68158 273.312 
L 347.68158 273.312 
L 346.599398 273.312 
z
" clip-path="url(#p6093d0a43f)" style="fill: #1f77b4"/>
   </g>
   <g id="patch_260">
    <path d="M 347.68158 273.312 
L 348.763761 273.312 
L 348.763761 273.312 
L 347.68158 273.312 
z
" clip-path="url(#p6093d0a43f)" style="fill: #1f77b4"/>
   </g>
   <g id="patch_261">
    <path d="M 348.763761 273.312 
L 349.845943 273.312 
L 349.845943 273.192114 
L 348.763761 273.192114 
z
" clip-path="url(#p6093d0a43f)" style="fill: #1f77b4"/>
   </g>
   <g id="patch_262">
    <path d="M 349.845943 273.312 
L 350.928125 273.312 
L 350.928125 273.312 
L 349.845943 273.312 
z
" clip-path="url(#p6093d0a43f)" style="fill: #1f77b4"/>
   </g>
   <g id="patch_263">
    <path d="M 350.928125 273.312 
L 352.010307 273.312 
L 352.010307 273.312 
L 350.928125 273.312 
z
" clip-path="url(#p6093d0a43f)" style="fill: #1f77b4"/>
   </g>
   <g id="patch_264">
    <path d="M 352.010307 273.312 
L 353.092489 273.312 
L 353.092489 273.072227 
L 352.010307 273.072227 
z
" clip-path="url(#p6093d0a43f)" style="fill: #1f77b4"/>
   </g>
   <g id="patch_265">
    <path d="M 353.092489 273.312 
L 354.17467 273.312 
L 354.17467 273.312 
L 353.092489 273.312 
z
" clip-path="url(#p6093d0a43f)" style="fill: #1f77b4"/>
   </g>
   <g id="patch_266">
    <path d="M 354.17467 273.312 
L 355.256852 273.312 
L 355.256852 273.312 
L 354.17467 273.312 
z
" clip-path="url(#p6093d0a43f)" style="fill: #1f77b4"/>
   </g>
   <g id="patch_267">
    <path d="M 355.256852 273.312 
L 356.339034 273.312 
L 356.339034 273.312 
L 355.256852 273.312 
z
" clip-path="url(#p6093d0a43f)" style="fill: #1f77b4"/>
   </g>
   <g id="patch_268">
    <path d="M 356.339034 273.312 
L 357.421216 273.312 
L 357.421216 273.312 
L 356.339034 273.312 
z
" clip-path="url(#p6093d0a43f)" style="fill: #1f77b4"/>
   </g>
   <g id="patch_269">
    <path d="M 357.421216 273.312 
L 358.503398 273.312 
L 358.503398 273.312 
L 357.421216 273.312 
z
" clip-path="url(#p6093d0a43f)" style="fill: #1f77b4"/>
   </g>
   <g id="patch_270">
    <path d="M 358.503398 273.312 
L 359.58558 273.312 
L 359.58558 273.312 
L 358.503398 273.312 
z
" clip-path="url(#p6093d0a43f)" style="fill: #1f77b4"/>
   </g>
   <g id="patch_271">
    <path d="M 359.58558 273.312 
L 360.667761 273.312 
L 360.667761 273.312 
L 359.58558 273.312 
z
" clip-path="url(#p6093d0a43f)" style="fill: #1f77b4"/>
   </g>
   <g id="patch_272">
    <path d="M 360.667761 273.312 
L 361.749943 273.312 
L 361.749943 273.312 
L 360.667761 273.312 
z
" clip-path="url(#p6093d0a43f)" style="fill: #1f77b4"/>
   </g>
   <g id="patch_273">
    <path d="M 361.749943 273.312 
L 362.832125 273.312 
L 362.832125 273.312 
L 361.749943 273.312 
z
" clip-path="url(#p6093d0a43f)" style="fill: #1f77b4"/>
   </g>
   <g id="patch_274">
    <path d="M 362.832125 273.312 
L 363.914307 273.312 
L 363.914307 273.312 
L 362.832125 273.312 
z
" clip-path="url(#p6093d0a43f)" style="fill: #1f77b4"/>
   </g>
   <g id="patch_275">
    <path d="M 363.914307 273.312 
L 364.996489 273.312 
L 364.996489 273.312 
L 363.914307 273.312 
z
" clip-path="url(#p6093d0a43f)" style="fill: #1f77b4"/>
   </g>
   <g id="patch_276">
    <path d="M 364.996489 273.312 
L 366.07867 273.312 
L 366.07867 273.312 
L 364.996489 273.312 
z
" clip-path="url(#p6093d0a43f)" style="fill: #1f77b4"/>
   </g>
   <g id="patch_277">
    <path d="M 366.07867 273.312 
L 367.160852 273.312 
L 367.160852 273.312 
L 366.07867 273.312 
z
" clip-path="url(#p6093d0a43f)" style="fill: #1f77b4"/>
   </g>
   <g id="patch_278">
    <path d="M 367.160852 273.312 
L 368.243034 273.312 
L 368.243034 273.312 
L 367.160852 273.312 
z
" clip-path="url(#p6093d0a43f)" style="fill: #1f77b4"/>
   </g>
   <g id="patch_279">
    <path d="M 368.243034 273.312 
L 369.325216 273.312 
L 369.325216 273.312 
L 368.243034 273.312 
z
" clip-path="url(#p6093d0a43f)" style="fill: #1f77b4"/>
   </g>
   <g id="patch_280">
    <path d="M 369.325216 273.312 
L 370.407398 273.312 
L 370.407398 273.312 
L 369.325216 273.312 
z
" clip-path="url(#p6093d0a43f)" style="fill: #1f77b4"/>
   </g>
   <g id="patch_281">
    <path d="M 370.407398 273.312 
L 371.48958 273.312 
L 371.48958 273.312 
L 370.407398 273.312 
z
" clip-path="url(#p6093d0a43f)" style="fill: #1f77b4"/>
   </g>
   <g id="patch_282">
    <path d="M 371.48958 273.312 
L 372.571761 273.312 
L 372.571761 273.312 
L 371.48958 273.312 
z
" clip-path="url(#p6093d0a43f)" style="fill: #1f77b4"/>
   </g>
   <g id="patch_283">
    <path d="M 372.571761 273.312 
L 373.653943 273.312 
L 373.653943 273.312 
L 372.571761 273.312 
z
" clip-path="url(#p6093d0a43f)" style="fill: #1f77b4"/>
   </g>
   <g id="patch_284">
    <path d="M 373.653943 273.312 
L 374.736125 273.312 
L 374.736125 273.312 
L 373.653943 273.312 
z
" clip-path="url(#p6093d0a43f)" style="fill: #1f77b4"/>
   </g>
   <g id="patch_285">
    <path d="M 374.736125 273.312 
L 375.818307 273.312 
L 375.818307 273.312 
L 374.736125 273.312 
z
" clip-path="url(#p6093d0a43f)" style="fill: #1f77b4"/>
   </g>
   <g id="patch_286">
    <path d="M 375.818307 273.312 
L 376.900489 273.312 
L 376.900489 273.312 
L 375.818307 273.312 
z
" clip-path="url(#p6093d0a43f)" style="fill: #1f77b4"/>
   </g>
   <g id="patch_287">
    <path d="M 376.900489 273.312 
L 377.98267 273.312 
L 377.98267 273.312 
L 376.900489 273.312 
z
" clip-path="url(#p6093d0a43f)" style="fill: #1f77b4"/>
   </g>
   <g id="patch_288">
    <path d="M 377.98267 273.312 
L 379.064852 273.312 
L 379.064852 273.312 
L 377.98267 273.312 
z
" clip-path="url(#p6093d0a43f)" style="fill: #1f77b4"/>
   </g>
   <g id="patch_289">
    <path d="M 379.064852 273.312 
L 380.147034 273.312 
L 380.147034 273.192114 
L 379.064852 273.192114 
z
" clip-path="url(#p6093d0a43f)" style="fill: #1f77b4"/>
   </g>
   <g id="patch_290">
    <path d="M 380.147034 273.312 
L 381.229216 273.312 
L 381.229216 273.312 
L 380.147034 273.312 
z
" clip-path="url(#p6093d0a43f)" style="fill: #1f77b4"/>
   </g>
   <g id="patch_291">
    <path d="M 381.229216 273.312 
L 382.311398 273.312 
L 382.311398 273.312 
L 381.229216 273.312 
z
" clip-path="url(#p6093d0a43f)" style="fill: #1f77b4"/>
   </g>
   <g id="patch_292">
    <path d="M 382.311398 273.312 
L 383.39358 273.312 
L 383.39358 273.312 
L 382.311398 273.312 
z
" clip-path="url(#p6093d0a43f)" style="fill: #1f77b4"/>
   </g>
   <g id="patch_293">
    <path d="M 383.39358 273.312 
L 384.475761 273.312 
L 384.475761 273.312 
L 383.39358 273.312 
z
" clip-path="url(#p6093d0a43f)" style="fill: #1f77b4"/>
   </g>
   <g id="patch_294">
    <path d="M 384.475761 273.312 
L 385.557943 273.312 
L 385.557943 273.312 
L 384.475761 273.312 
z
" clip-path="url(#p6093d0a43f)" style="fill: #1f77b4"/>
   </g>
   <g id="patch_295">
    <path d="M 385.557943 273.312 
L 386.640125 273.312 
L 386.640125 273.312 
L 385.557943 273.312 
z
" clip-path="url(#p6093d0a43f)" style="fill: #1f77b4"/>
   </g>
   <g id="patch_296">
    <path d="M 386.640125 273.312 
L 387.722307 273.312 
L 387.722307 273.312 
L 386.640125 273.312 
z
" clip-path="url(#p6093d0a43f)" style="fill: #1f77b4"/>
   </g>
   <g id="patch_297">
    <path d="M 387.722307 273.312 
L 388.804489 273.312 
L 388.804489 273.312 
L 387.722307 273.312 
z
" clip-path="url(#p6093d0a43f)" style="fill: #1f77b4"/>
   </g>
   <g id="patch_298">
    <path d="M 388.804489 273.312 
L 389.88667 273.312 
L 389.88667 272.952341 
L 388.804489 272.952341 
z
" clip-path="url(#p6093d0a43f)" style="fill: #1f77b4"/>
   </g>
   <g id="patch_299">
    <path d="M 389.88667 273.312 
L 390.968852 273.312 
L 390.968852 273.312 
L 389.88667 273.312 
z
" clip-path="url(#p6093d0a43f)" style="fill: #1f77b4"/>
   </g>
   <g id="patch_300">
    <path d="M 390.968852 273.312 
L 392.051034 273.312 
L 392.051034 273.312 
L 390.968852 273.312 
z
" clip-path="url(#p6093d0a43f)" style="fill: #1f77b4"/>
   </g>
   <g id="patch_301">
    <path d="M 392.051034 273.312 
L 393.133216 273.312 
L 393.133216 273.312 
L 392.051034 273.312 
z
" clip-path="url(#p6093d0a43f)" style="fill: #1f77b4"/>
   </g>
   <g id="patch_302">
    <path d="M 393.133216 273.312 
L 394.215398 273.312 
L 394.215398 273.192114 
L 393.133216 273.192114 
z
" clip-path="url(#p6093d0a43f)" style="fill: #1f77b4"/>
   </g>
   <g id="matplotlib.axis_1">
    <g id="xtick_1">
     <g id="line2d_1">
      <defs>
       <path id="m62760a27aa" d="M 0 0 
L 0 3.5 
" style="stroke: #000000; stroke-width: 0.8"/>
      </defs>
      <g>
       <use xlink:href="#m62760a27aa" x="66.734258" y="273.312" style="stroke: #000000; stroke-width: 0.8"/>
      </g>
     </g>
     <g id="text_1">
      <!-- 0 -->
      <g transform="translate(63.553008 287.910437) scale(0.1 -0.1)">
       <defs>
        <path id="DejaVuSans-30" d="M 2034 4250 
Q 1547 4250 1301 3770 
Q 1056 3291 1056 2328 
Q 1056 1369 1301 889 
Q 1547 409 2034 409 
Q 2525 409 2770 889 
Q 3016 1369 3016 2328 
Q 3016 3291 2770 3770 
Q 2525 4250 2034 4250 
z
M 2034 4750 
Q 2819 4750 3233 4129 
Q 3647 3509 3647 2328 
Q 3647 1150 3233 529 
Q 2819 -91 2034 -91 
Q 1250 -91 836 529 
Q 422 1150 422 2328 
Q 422 3509 836 4129 
Q 1250 4750 2034 4750 
z
" transform="scale(0.015625)"/>
       </defs>
       <use xlink:href="#DejaVuSans-30"/>
      </g>
     </g>
    </g>
    <g id="xtick_2">
     <g id="line2d_2">
      <g>
       <use xlink:href="#m62760a27aa" x="107.114177" y="273.312" style="stroke: #000000; stroke-width: 0.8"/>
      </g>
     </g>
     <g id="text_2">
      <!-- 100 -->
      <g transform="translate(97.570427 287.910437) scale(0.1 -0.1)">
       <defs>
        <path id="DejaVuSans-31" d="M 794 531 
L 1825 531 
L 1825 4091 
L 703 3866 
L 703 4441 
L 1819 4666 
L 2450 4666 
L 2450 531 
L 3481 531 
L 3481 0 
L 794 0 
L 794 531 
z
" transform="scale(0.015625)"/>
       </defs>
       <use xlink:href="#DejaVuSans-31"/>
       <use xlink:href="#DejaVuSans-30" transform="translate(63.623047 0)"/>
       <use xlink:href="#DejaVuSans-30" transform="translate(127.246094 0)"/>
      </g>
     </g>
    </g>
    <g id="xtick_3">
     <g id="line2d_3">
      <g>
       <use xlink:href="#m62760a27aa" x="147.494095" y="273.312" style="stroke: #000000; stroke-width: 0.8"/>
      </g>
     </g>
     <g id="text_3">
      <!-- 200 -->
      <g transform="translate(137.950345 287.910437) scale(0.1 -0.1)">
       <defs>
        <path id="DejaVuSans-32" d="M 1228 531 
L 3431 531 
L 3431 0 
L 469 0 
L 469 531 
Q 828 903 1448 1529 
Q 2069 2156 2228 2338 
Q 2531 2678 2651 2914 
Q 2772 3150 2772 3378 
Q 2772 3750 2511 3984 
Q 2250 4219 1831 4219 
Q 1534 4219 1204 4116 
Q 875 4013 500 3803 
L 500 4441 
Q 881 4594 1212 4672 
Q 1544 4750 1819 4750 
Q 2544 4750 2975 4387 
Q 3406 4025 3406 3419 
Q 3406 3131 3298 2873 
Q 3191 2616 2906 2266 
Q 2828 2175 2409 1742 
Q 1991 1309 1228 531 
z
" transform="scale(0.015625)"/>
       </defs>
       <use xlink:href="#DejaVuSans-32"/>
       <use xlink:href="#DejaVuSans-30" transform="translate(63.623047 0)"/>
       <use xlink:href="#DejaVuSans-30" transform="translate(127.246094 0)"/>
      </g>
     </g>
    </g>
    <g id="xtick_4">
     <g id="line2d_4">
      <g>
       <use xlink:href="#m62760a27aa" x="187.874014" y="273.312" style="stroke: #000000; stroke-width: 0.8"/>
      </g>
     </g>
     <g id="text_4">
      <!-- 300 -->
      <g transform="translate(178.330264 287.910437) scale(0.1 -0.1)">
       <defs>
        <path id="DejaVuSans-33" d="M 2597 2516 
Q 3050 2419 3304 2112 
Q 3559 1806 3559 1356 
Q 3559 666 3084 287 
Q 2609 -91 1734 -91 
Q 1441 -91 1130 -33 
Q 819 25 488 141 
L 488 750 
Q 750 597 1062 519 
Q 1375 441 1716 441 
Q 2309 441 2620 675 
Q 2931 909 2931 1356 
Q 2931 1769 2642 2001 
Q 2353 2234 1838 2234 
L 1294 2234 
L 1294 2753 
L 1863 2753 
Q 2328 2753 2575 2939 
Q 2822 3125 2822 3475 
Q 2822 3834 2567 4026 
Q 2313 4219 1838 4219 
Q 1578 4219 1281 4162 
Q 984 4106 628 3988 
L 628 4550 
Q 988 4650 1302 4700 
Q 1616 4750 1894 4750 
Q 2613 4750 3031 4423 
Q 3450 4097 3450 3541 
Q 3450 3153 3228 2886 
Q 3006 2619 2597 2516 
z
" transform="scale(0.015625)"/>
       </defs>
       <use xlink:href="#DejaVuSans-33"/>
       <use xlink:href="#DejaVuSans-30" transform="translate(63.623047 0)"/>
       <use xlink:href="#DejaVuSans-30" transform="translate(127.246094 0)"/>
      </g>
     </g>
    </g>
    <g id="xtick_5">
     <g id="line2d_5">
      <g>
       <use xlink:href="#m62760a27aa" x="228.253932" y="273.312" style="stroke: #000000; stroke-width: 0.8"/>
      </g>
     </g>
     <g id="text_5">
      <!-- 400 -->
      <g transform="translate(218.710182 287.910437) scale(0.1 -0.1)">
       <defs>
        <path id="DejaVuSans-34" d="M 2419 4116 
L 825 1625 
L 2419 1625 
L 2419 4116 
z
M 2253 4666 
L 3047 4666 
L 3047 1625 
L 3713 1625 
L 3713 1100 
L 3047 1100 
L 3047 0 
L 2419 0 
L 2419 1100 
L 313 1100 
L 313 1709 
L 2253 4666 
z
" transform="scale(0.015625)"/>
       </defs>
       <use xlink:href="#DejaVuSans-34"/>
       <use xlink:href="#DejaVuSans-30" transform="translate(63.623047 0)"/>
       <use xlink:href="#DejaVuSans-30" transform="translate(127.246094 0)"/>
      </g>
     </g>
    </g>
    <g id="xtick_6">
     <g id="line2d_6">
      <g>
       <use xlink:href="#m62760a27aa" x="268.633851" y="273.312" style="stroke: #000000; stroke-width: 0.8"/>
      </g>
     </g>
     <g id="text_6">
      <!-- 500 -->
      <g transform="translate(259.090101 287.910437) scale(0.1 -0.1)">
       <defs>
        <path id="DejaVuSans-35" d="M 691 4666 
L 3169 4666 
L 3169 4134 
L 1269 4134 
L 1269 2991 
Q 1406 3038 1543 3061 
Q 1681 3084 1819 3084 
Q 2600 3084 3056 2656 
Q 3513 2228 3513 1497 
Q 3513 744 3044 326 
Q 2575 -91 1722 -91 
Q 1428 -91 1123 -41 
Q 819 9 494 109 
L 494 744 
Q 775 591 1075 516 
Q 1375 441 1709 441 
Q 2250 441 2565 725 
Q 2881 1009 2881 1497 
Q 2881 1984 2565 2268 
Q 2250 2553 1709 2553 
Q 1456 2553 1204 2497 
Q 953 2441 691 2322 
L 691 4666 
z
" transform="scale(0.015625)"/>
       </defs>
       <use xlink:href="#DejaVuSans-35"/>
       <use xlink:href="#DejaVuSans-30" transform="translate(63.623047 0)"/>
       <use xlink:href="#DejaVuSans-30" transform="translate(127.246094 0)"/>
      </g>
     </g>
    </g>
    <g id="xtick_7">
     <g id="line2d_7">
      <g>
       <use xlink:href="#m62760a27aa" x="309.01377" y="273.312" style="stroke: #000000; stroke-width: 0.8"/>
      </g>
     </g>
     <g id="text_7">
      <!-- 600 -->
      <g transform="translate(299.47002 287.910437) scale(0.1 -0.1)">
       <defs>
        <path id="DejaVuSans-36" d="M 2113 2584 
Q 1688 2584 1439 2293 
Q 1191 2003 1191 1497 
Q 1191 994 1439 701 
Q 1688 409 2113 409 
Q 2538 409 2786 701 
Q 3034 994 3034 1497 
Q 3034 2003 2786 2293 
Q 2538 2584 2113 2584 
z
M 3366 4563 
L 3366 3988 
Q 3128 4100 2886 4159 
Q 2644 4219 2406 4219 
Q 1781 4219 1451 3797 
Q 1122 3375 1075 2522 
Q 1259 2794 1537 2939 
Q 1816 3084 2150 3084 
Q 2853 3084 3261 2657 
Q 3669 2231 3669 1497 
Q 3669 778 3244 343 
Q 2819 -91 2113 -91 
Q 1303 -91 875 529 
Q 447 1150 447 2328 
Q 447 3434 972 4092 
Q 1497 4750 2381 4750 
Q 2619 4750 2861 4703 
Q 3103 4656 3366 4563 
z
" transform="scale(0.015625)"/>
       </defs>
       <use xlink:href="#DejaVuSans-36"/>
       <use xlink:href="#DejaVuSans-30" transform="translate(63.623047 0)"/>
       <use xlink:href="#DejaVuSans-30" transform="translate(127.246094 0)"/>
      </g>
     </g>
    </g>
    <g id="xtick_8">
     <g id="line2d_8">
      <g>
       <use xlink:href="#m62760a27aa" x="349.393688" y="273.312" style="stroke: #000000; stroke-width: 0.8"/>
      </g>
     </g>
     <g id="text_8">
      <!-- 700 -->
      <g transform="translate(339.849938 287.910437) scale(0.1 -0.1)">
       <defs>
        <path id="DejaVuSans-37" d="M 525 4666 
L 3525 4666 
L 3525 4397 
L 1831 0 
L 1172 0 
L 2766 4134 
L 525 4134 
L 525 4666 
z
" transform="scale(0.015625)"/>
       </defs>
       <use xlink:href="#DejaVuSans-37"/>
       <use xlink:href="#DejaVuSans-30" transform="translate(63.623047 0)"/>
       <use xlink:href="#DejaVuSans-30" transform="translate(127.246094 0)"/>
      </g>
     </g>
    </g>
    <g id="xtick_9">
     <g id="line2d_9">
      <g>
       <use xlink:href="#m62760a27aa" x="389.773607" y="273.312" style="stroke: #000000; stroke-width: 0.8"/>
      </g>
     </g>
     <g id="text_9">
      <!-- 800 -->
      <g transform="translate(380.229857 287.910437) scale(0.1 -0.1)">
       <defs>
        <path id="DejaVuSans-38" d="M 2034 2216 
Q 1584 2216 1326 1975 
Q 1069 1734 1069 1313 
Q 1069 891 1326 650 
Q 1584 409 2034 409 
Q 2484 409 2743 651 
Q 3003 894 3003 1313 
Q 3003 1734 2745 1975 
Q 2488 2216 2034 2216 
z
M 1403 2484 
Q 997 2584 770 2862 
Q 544 3141 544 3541 
Q 544 4100 942 4425 
Q 1341 4750 2034 4750 
Q 2731 4750 3128 4425 
Q 3525 4100 3525 3541 
Q 3525 3141 3298 2862 
Q 3072 2584 2669 2484 
Q 3125 2378 3379 2068 
Q 3634 1759 3634 1313 
Q 3634 634 3220 271 
Q 2806 -91 2034 -91 
Q 1263 -91 848 271 
Q 434 634 434 1313 
Q 434 1759 690 2068 
Q 947 2378 1403 2484 
z
M 1172 3481 
Q 1172 3119 1398 2916 
Q 1625 2713 2034 2713 
Q 2441 2713 2670 2916 
Q 2900 3119 2900 3481 
Q 2900 3844 2670 4047 
Q 2441 4250 2034 4250 
Q 1625 4250 1398 4047 
Q 1172 3844 1172 3481 
z
" transform="scale(0.015625)"/>
       </defs>
       <use xlink:href="#DejaVuSans-38"/>
       <use xlink:href="#DejaVuSans-30" transform="translate(63.623047 0)"/>
       <use xlink:href="#DejaVuSans-30" transform="translate(127.246094 0)"/>
      </g>
     </g>
    </g>
    <g id="text_10">
     <!--   (. .) -->
     <g transform="translate(160.620156 301.588562) scale(0.1 -0.1)">
      <defs>
       <path id="DejaVuSans-41f" d="M 4184 4666 
L 4184 0 
L 3553 0 
L 3553 4134 
L 1259 4134 
L 1259 0 
L 628 0 
L 628 4666 
L 4184 4666 
z
" transform="scale(0.015625)"/>
       <path id="DejaVuSans-43b" d="M 238 0 
L 238 478 
Q 806 566 981 959 
Q 1194 1513 1194 2928 
L 1194 3500 
L 3559 3500 
L 3559 0 
L 2984 0 
L 2984 3041 
L 1769 3041 
L 1769 2694 
Q 1769 1344 1494 738 
Q 1200 91 238 0 
z
" transform="scale(0.015625)"/>
       <path id="DejaVuSans-43e" d="M 1959 3097 
Q 1497 3097 1228 2736 
Q 959 2375 959 1747 
Q 959 1119 1226 758 
Q 1494 397 1959 397 
Q 2419 397 2687 759 
Q 2956 1122 2956 1747 
Q 2956 2369 2687 2733 
Q 2419 3097 1959 3097 
z
M 1959 3584 
Q 2709 3584 3137 3096 
Q 3566 2609 3566 1747 
Q 3566 888 3137 398 
Q 2709 -91 1959 -91 
Q 1206 -91 779 398 
Q 353 888 353 1747 
Q 353 2609 779 3096 
Q 1206 3584 1959 3584 
z
" transform="scale(0.015625)"/>
       <path id="DejaVuSans-449" d="M 5275 0 
L 581 0 
L 581 3500 
L 1159 3500 
L 1159 459 
L 2638 459 
L 2638 3500 
L 3216 3500 
L 3216 459 
L 4697 459 
L 4697 3500 
L 5275 3500 
L 5275 459 
L 5734 459 
L 5734 -884 
L 5275 -884 
L 5275 0 
z
" transform="scale(0.015625)"/>
       <path id="DejaVuSans-430" d="M 2194 1759 
Q 1497 1759 1228 1600 
Q 959 1441 959 1056 
Q 959 750 1161 570 
Q 1363 391 1709 391 
Q 2188 391 2477 730 
Q 2766 1069 2766 1631 
L 2766 1759 
L 2194 1759 
z
M 3341 1997 
L 3341 0 
L 2766 0 
L 2766 531 
Q 2569 213 2275 61 
Q 1981 -91 1556 -91 
Q 1019 -91 701 211 
Q 384 513 384 1019 
Q 384 1609 779 1909 
Q 1175 2209 1959 2209 
L 2766 2209 
L 2766 2266 
Q 2766 2663 2505 2880 
Q 2244 3097 1772 3097 
Q 1472 3097 1187 3025 
Q 903 2953 641 2809 
L 641 3341 
Q 956 3463 1253 3523 
Q 1550 3584 1831 3584 
Q 2591 3584 2966 3190 
Q 3341 2797 3341 1997 
z
" transform="scale(0.015625)"/>
       <path id="DejaVuSans-434" d="M 1384 459 
L 3053 459 
L 3053 3041 
L 1844 3041 
L 1844 2603 
Q 1844 1316 1475 628 
L 1384 459 
z
M 550 459 
Q 834 584 959 850 
Q 1266 1509 1266 2838 
L 1266 3500 
L 3631 3500 
L 3631 459 
L 4091 459 
L 4091 -884 
L 3631 -884 
L 3631 0 
L 794 0 
L 794 -884 
L 334 -884 
L 334 459 
L 550 459 
z
" transform="scale(0.015625)"/>
       <path id="DejaVuSans-44c" d="M 2781 1038 
Q 2781 1319 2576 1466 
Q 2372 1613 1978 1613 
L 1159 1613 
L 1159 459 
L 1978 459 
Q 2372 459 2576 607 
Q 2781 756 2781 1038 
z
M 581 3500 
L 1159 3500 
L 1159 2072 
L 2003 2072 
Q 2672 2072 3033 1817 
Q 3394 1563 3394 1038 
Q 3394 513 3033 256 
Q 2672 0 2003 0 
L 581 0 
L 581 3500 
z
" transform="scale(0.015625)"/>
       <path id="DejaVuSans-20" transform="scale(0.015625)"/>
       <path id="DejaVuSans-43a" d="M 581 3500 
L 1153 3500 
L 1153 1856 
L 2775 3500 
L 3481 3500 
L 2144 2147 
L 3653 0 
L 3009 0 
L 1769 1766 
L 1153 1141 
L 1153 0 
L 581 0 
L 581 3500 
z
" transform="scale(0.015625)"/>
       <path id="DejaVuSans-432" d="M 1156 1613 
L 1156 459 
L 1975 459 
Q 2369 459 2575 607 
Q 2781 756 2781 1038 
Q 2781 1319 2575 1466 
Q 2369 1613 1975 1613 
L 1156 1613 
z
M 1156 3041 
L 1156 2072 
L 1913 2072 
Q 2238 2072 2444 2201 
Q 2650 2331 2650 2563 
Q 2650 2794 2444 2917 
Q 2238 3041 1913 3041 
L 1156 3041 
z
M 581 3500 
L 1950 3500 
Q 2566 3500 2897 3275 
Q 3228 3050 3228 2634 
Q 3228 2313 3059 2123 
Q 2891 1934 2559 1888 
Q 2956 1813 3175 1575 
Q 3394 1338 3394 981 
Q 3394 513 3033 256 
Q 2672 0 2003 0 
L 581 0 
L 581 3500 
z
" transform="scale(0.015625)"/>
       <path id="DejaVuSans-440" d="M 1159 525 
L 1159 -1331 
L 581 -1331 
L 581 3500 
L 1159 3500 
L 1159 2969 
Q 1341 3281 1617 3432 
Q 1894 3584 2278 3584 
Q 2916 3584 3314 3078 
Q 3713 2572 3713 1747 
Q 3713 922 3314 415 
Q 2916 -91 2278 -91 
Q 1894 -91 1617 61 
Q 1341 213 1159 525 
z
M 3116 1747 
Q 3116 2381 2855 2742 
Q 2594 3103 2138 3103 
Q 1681 3103 1420 2742 
Q 1159 2381 1159 1747 
Q 1159 1113 1420 752 
Q 1681 391 2138 391 
Q 2594 391 2855 752 
Q 3116 1113 3116 1747 
z
" transform="scale(0.015625)"/>
       <path id="DejaVuSans-442" d="M 188 3500 
L 3541 3500 
L 3541 3041 
L 2147 3041 
L 2147 0 
L 1581 0 
L 1581 3041 
L 188 3041 
L 188 3500 
z
" transform="scale(0.015625)"/>
       <path id="DejaVuSans-438" d="M 3578 3500 
L 3578 0 
L 3006 0 
L 3006 2809 
L 1319 0 
L 581 0 
L 581 3500 
L 1153 3500 
L 1153 697 
L 2838 3500 
L 3578 3500 
z
" transform="scale(0.015625)"/>
       <path id="DejaVuSans-44b" d="M 3907 3500 
L 4482 3500 
L 4482 0 
L 3907 0 
L 3907 3500 
z
M 4195 3584 
L 4195 3584 
z
M 2781 1038 
Q 2781 1319 2576 1466 
Q 2372 1613 1978 1613 
L 1159 1613 
L 1159 459 
L 1978 459 
Q 2372 459 2576 607 
Q 2781 756 2781 1038 
z
M 581 3500 
L 1159 3500 
L 1159 2072 
L 2003 2072 
Q 2672 2072 3033 1817 
Q 3394 1563 3394 1038 
Q 3394 513 3033 256 
Q 2672 0 2003 0 
L 581 0 
L 581 3500 
z
" transform="scale(0.015625)"/>
       <path id="DejaVuSans-28" d="M 1984 4856 
Q 1566 4138 1362 3434 
Q 1159 2731 1159 2009 
Q 1159 1288 1364 580 
Q 1569 -128 1984 -844 
L 1484 -844 
Q 1016 -109 783 600 
Q 550 1309 550 2009 
Q 550 2706 781 3412 
Q 1013 4119 1484 4856 
L 1984 4856 
z
" transform="scale(0.015625)"/>
       <path id="DejaVuSans-2e" d="M 684 794 
L 1344 794 
L 1344 0 
L 684 0 
L 684 794 
z
" transform="scale(0.015625)"/>
       <path id="DejaVuSans-43c" d="M 581 3500 
L 1422 3500 
L 2416 1156 
L 3413 3500 
L 4247 3500 
L 4247 0 
L 3669 0 
L 3669 2950 
L 2703 672 
L 2128 672 
L 1159 2950 
L 1159 0 
L 581 0 
L 581 3500 
z
" transform="scale(0.015625)"/>
       <path id="DejaVuSans-29" d="M 513 4856 
L 1013 4856 
Q 1481 4119 1714 3412 
Q 1947 2706 1947 2009 
Q 1947 1309 1714 600 
Q 1481 -109 1013 -844 
L 513 -844 
Q 928 -128 1133 580 
Q 1338 1288 1338 2009 
Q 1338 2731 1133 3434 
Q 928 4138 513 4856 
z
" transform="scale(0.015625)"/>
      </defs>
      <use xlink:href="#DejaVuSans-41f"/>
      <use xlink:href="#DejaVuSans-43b" transform="translate(75.195312 0)"/>
      <use xlink:href="#DejaVuSans-43e" transform="translate(139.111328 0)"/>
      <use xlink:href="#DejaVuSans-449" transform="translate(200.292969 0)"/>
      <use xlink:href="#DejaVuSans-430" transform="translate(294.482422 0)"/>
      <use xlink:href="#DejaVuSans-434" transform="translate(355.761719 0)"/>
      <use xlink:href="#DejaVuSans-44c" transform="translate(424.902344 0)"/>
      <use xlink:href="#DejaVuSans-20" transform="translate(483.837891 0)"/>
      <use xlink:href="#DejaVuSans-43a" transform="translate(515.625 0)"/>
      <use xlink:href="#DejaVuSans-432" transform="translate(576.025391 0)"/>
      <use xlink:href="#DejaVuSans-430" transform="translate(634.960938 0)"/>
      <use xlink:href="#DejaVuSans-440" transform="translate(696.240234 0)"/>
      <use xlink:href="#DejaVuSans-442" transform="translate(759.716797 0)"/>
      <use xlink:href="#DejaVuSans-438" transform="translate(817.96875 0)"/>
      <use xlink:href="#DejaVuSans-440" transform="translate(882.958984 0)"/>
      <use xlink:href="#DejaVuSans-44b" transform="translate(946.435547 0)"/>
      <use xlink:href="#DejaVuSans-20" transform="translate(1025.390625 0)"/>
      <use xlink:href="#DejaVuSans-28" transform="translate(1057.177734 0)"/>
      <use xlink:href="#DejaVuSans-43a" transform="translate(1096.191406 0)"/>
      <use xlink:href="#DejaVuSans-432" transform="translate(1156.591797 0)"/>
      <use xlink:href="#DejaVuSans-2e" transform="translate(1215.527344 0)"/>
      <use xlink:href="#DejaVuSans-20" transform="translate(1247.314453 0)"/>
      <use xlink:href="#DejaVuSans-43c" transform="translate(1279.101562 0)"/>
      <use xlink:href="#DejaVuSans-2e" transform="translate(1354.541016 0)"/>
      <use xlink:href="#DejaVuSans-29" transform="translate(1386.328125 0)"/>
     </g>
    </g>
   </g>
   <g id="matplotlib.axis_2">
    <g id="ytick_1">
     <g id="line2d_10">
      <defs>
       <path id="m450c4cb1fb" d="M 0 0 
L -3.5 0 
" style="stroke: #000000; stroke-width: 0.8"/>
      </defs>
      <g>
       <use xlink:href="#m450c4cb1fb" x="53.328125" y="273.312" style="stroke: #000000; stroke-width: 0.8"/>
      </g>
     </g>
     <g id="text_11">
      <!-- 0 -->
      <g transform="translate(39.965625 277.111219) scale(0.1 -0.1)">
       <use xlink:href="#DejaVuSans-30"/>
      </g>
     </g>
    </g>
    <g id="ytick_2">
     <g id="line2d_11">
      <g>
       <use xlink:href="#m450c4cb1fb" x="53.328125" y="243.340382" style="stroke: #000000; stroke-width: 0.8"/>
      </g>
     </g>
     <g id="text_12">
      <!-- 250 -->
      <g transform="translate(27.240625 247.139601) scale(0.1 -0.1)">
       <use xlink:href="#DejaVuSans-32"/>
       <use xlink:href="#DejaVuSans-35" transform="translate(63.623047 0)"/>
       <use xlink:href="#DejaVuSans-30" transform="translate(127.246094 0)"/>
      </g>
     </g>
    </g>
    <g id="ytick_3">
     <g id="line2d_12">
      <g>
       <use xlink:href="#m450c4cb1fb" x="53.328125" y="213.368764" style="stroke: #000000; stroke-width: 0.8"/>
      </g>
     </g>
     <g id="text_13">
      <!-- 500 -->
      <g transform="translate(27.240625 217.167983) scale(0.1 -0.1)">
       <use xlink:href="#DejaVuSans-35"/>
       <use xlink:href="#DejaVuSans-30" transform="translate(63.623047 0)"/>
       <use xlink:href="#DejaVuSans-30" transform="translate(127.246094 0)"/>
      </g>
     </g>
    </g>
    <g id="ytick_4">
     <g id="line2d_13">
      <g>
       <use xlink:href="#m450c4cb1fb" x="53.328125" y="183.397147" style="stroke: #000000; stroke-width: 0.8"/>
      </g>
     </g>
     <g id="text_14">
      <!-- 750 -->
      <g transform="translate(27.240625 187.196365) scale(0.1 -0.1)">
       <use xlink:href="#DejaVuSans-37"/>
       <use xlink:href="#DejaVuSans-35" transform="translate(63.623047 0)"/>
       <use xlink:href="#DejaVuSans-30" transform="translate(127.246094 0)"/>
      </g>
     </g>
    </g>
    <g id="ytick_5">
     <g id="line2d_14">
      <g>
       <use xlink:href="#m450c4cb1fb" x="53.328125" y="153.425529" style="stroke: #000000; stroke-width: 0.8"/>
      </g>
     </g>
     <g id="text_15">
      <!-- 1000 -->
      <g transform="translate(20.878125 157.224748) scale(0.1 -0.1)">
       <use xlink:href="#DejaVuSans-31"/>
       <use xlink:href="#DejaVuSans-30" transform="translate(63.623047 0)"/>
       <use xlink:href="#DejaVuSans-30" transform="translate(127.246094 0)"/>
       <use xlink:href="#DejaVuSans-30" transform="translate(190.869141 0)"/>
      </g>
     </g>
    </g>
    <g id="ytick_6">
     <g id="line2d_15">
      <g>
       <use xlink:href="#m450c4cb1fb" x="53.328125" y="123.453911" style="stroke: #000000; stroke-width: 0.8"/>
      </g>
     </g>
     <g id="text_16">
      <!-- 1250 -->
      <g transform="translate(20.878125 127.25313) scale(0.1 -0.1)">
       <use xlink:href="#DejaVuSans-31"/>
       <use xlink:href="#DejaVuSans-32" transform="translate(63.623047 0)"/>
       <use xlink:href="#DejaVuSans-35" transform="translate(127.246094 0)"/>
       <use xlink:href="#DejaVuSans-30" transform="translate(190.869141 0)"/>
      </g>
     </g>
    </g>
    <g id="ytick_7">
     <g id="line2d_16">
      <g>
       <use xlink:href="#m450c4cb1fb" x="53.328125" y="93.482293" style="stroke: #000000; stroke-width: 0.8"/>
      </g>
     </g>
     <g id="text_17">
      <!-- 1500 -->
      <g transform="translate(20.878125 97.281512) scale(0.1 -0.1)">
       <use xlink:href="#DejaVuSans-31"/>
       <use xlink:href="#DejaVuSans-35" transform="translate(63.623047 0)"/>
       <use xlink:href="#DejaVuSans-30" transform="translate(127.246094 0)"/>
       <use xlink:href="#DejaVuSans-30" transform="translate(190.869141 0)"/>
      </g>
     </g>
    </g>
    <g id="ytick_8">
     <g id="line2d_17">
      <g>
       <use xlink:href="#m450c4cb1fb" x="53.328125" y="63.510675" style="stroke: #000000; stroke-width: 0.8"/>
      </g>
     </g>
     <g id="text_18">
      <!-- 1750 -->
      <g transform="translate(20.878125 67.309894) scale(0.1 -0.1)">
       <use xlink:href="#DejaVuSans-31"/>
       <use xlink:href="#DejaVuSans-37" transform="translate(63.623047 0)"/>
       <use xlink:href="#DejaVuSans-35" transform="translate(127.246094 0)"/>
       <use xlink:href="#DejaVuSans-30" transform="translate(190.869141 0)"/>
      </g>
     </g>
    </g>
    <g id="ytick_9">
     <g id="line2d_18">
      <g>
       <use xlink:href="#m450c4cb1fb" x="53.328125" y="33.539058" style="stroke: #000000; stroke-width: 0.8"/>
      </g>
     </g>
     <g id="text_19">
      <!-- 2000 -->
      <g transform="translate(20.878125 37.338276) scale(0.1 -0.1)">
       <use xlink:href="#DejaVuSans-32"/>
       <use xlink:href="#DejaVuSans-30" transform="translate(63.623047 0)"/>
       <use xlink:href="#DejaVuSans-30" transform="translate(127.246094 0)"/>
       <use xlink:href="#DejaVuSans-30" transform="translate(190.869141 0)"/>
      </g>
     </g>
    </g>
    <g id="text_20">
     <!--   -->
     <g transform="translate(14.798438 204.2685) rotate(-90) scale(0.1 -0.1)">
      <defs>
       <path id="DejaVuSans-41a" d="M 628 4666 
L 1259 4666 
L 1259 2359 
L 3516 4666 
L 4325 4666 
L 2522 2822 
L 4419 0 
L 3731 0 
L 2113 2403 
L 1259 1531 
L 1259 0 
L 628 0 
L 628 4666 
z
" transform="scale(0.015625)"/>
       <path id="DejaVuSans-447" d="M 2625 0 
L 2625 1472 
L 1553 1472 
Q 1075 1472 756 1769 
Q 469 2038 469 2613 
L 469 3500 
L 1044 3500 
L 1044 2666 
Q 1044 2300 1206 2116 
Q 1372 1931 1697 1931 
L 2625 1931 
L 2625 3500 
L 3200 3500 
L 3200 0 
L 2625 0 
z
" transform="scale(0.015625)"/>
       <path id="DejaVuSans-435" d="M 3597 1894 
L 3597 1613 
L 953 1613 
Q 991 1019 1311 708 
Q 1631 397 2203 397 
Q 2534 397 2845 478 
Q 3156 559 3463 722 
L 3463 178 
Q 3153 47 2828 -22 
Q 2503 -91 2169 -91 
Q 1331 -91 842 396 
Q 353 884 353 1716 
Q 353 2575 817 3079 
Q 1281 3584 2069 3584 
Q 2775 3584 3186 3129 
Q 3597 2675 3597 1894 
z
M 3022 2063 
Q 3016 2534 2758 2815 
Q 2500 3097 2075 3097 
Q 1594 3097 1305 2825 
Q 1016 2553 972 2059 
L 3022 2063 
z
" transform="scale(0.015625)"/>
       <path id="DejaVuSans-441" d="M 3122 3366 
L 3122 2828 
Q 2878 2963 2633 3030 
Q 2388 3097 2138 3097 
Q 1578 3097 1268 2742 
Q 959 2388 959 1747 
Q 959 1106 1268 751 
Q 1578 397 2138 397 
Q 2388 397 2633 464 
Q 2878 531 3122 666 
L 3122 134 
Q 2881 22 2623 -34 
Q 2366 -91 2075 -91 
Q 1284 -91 818 406 
Q 353 903 353 1747 
Q 353 2603 823 3093 
Q 1294 3584 2113 3584 
Q 2378 3584 2631 3529 
Q 2884 3475 3122 3366 
z
" transform="scale(0.015625)"/>
       <path id="DejaVuSans-431" d="M 1991 3584 
Q 2741 3584 3169 3096 
Q 3597 2609 3597 1747 
Q 3597 888 3169 398 
Q 2741 -91 1991 -91 
Q 1238 -91 822 384 
Q 406 859 384 1747 
L 366 2463 
Q 350 2834 350 2963 
Q 350 3463 531 3831 
Q 816 4409 1308 4659 
Q 1800 4909 2625 4916 
Q 3006 4919 3175 4972 
L 3334 4516 
Q 3181 4453 3041 4450 
L 2259 4397 
Q 1866 4369 1628 4231 
Q 1006 3866 947 3388 
L 925 3213 
Q 1331 3584 1991 3584 
z
M 1991 3097 
Q 1528 3097 1259 2736 
Q 991 2375 991 1747 
Q 991 1119 1258 758 
Q 1525 397 1991 397 
Q 2450 397 2719 759 
Q 2988 1122 2988 1747 
Q 2988 2369 2719 2733 
Q 2450 3097 1991 3097 
z
" transform="scale(0.015625)"/>
       <path id="DejaVuSans-44a" d="M 2753 2072 
Q 3422 2072 3783 1817 
Q 4144 1563 4144 1038 
Q 4144 513 3783 256 
Q 3422 0 2753 0 
L 1328 0 
L 1328 3041 
L 194 3041 
L 194 3500 
L 1906 3500 
L 1906 2072 
L 2753 2072 
z
M 2728 1613 
L 1906 1613 
L 1906 459 
L 2728 459 
Q 3122 459 3326 607 
Q 3531 756 3531 1038 
Q 3531 1319 3326 1466 
Q 3122 1613 2728 1613 
z
" transform="scale(0.015625)"/>
       <path id="DejaVuSans-44f" d="M 1181 2491 
Q 1181 2231 1381 2084 
Q 1581 1938 1953 1938 
L 2728 1938 
L 2728 3041 
L 1953 3041 
Q 1581 3041 1381 2897 
Q 1181 2753 1181 2491 
z
M 363 0 
L 1431 1534 
Q 1069 1616 828 1830 
Q 588 2044 588 2491 
Q 588 2997 923 3248 
Q 1259 3500 1938 3500 
L 3306 3500 
L 3306 0 
L 2728 0 
L 2728 1478 
L 2013 1478 
L 981 0 
L 363 0 
z
" transform="scale(0.015625)"/>
       <path id="DejaVuSans-43d" d="M 581 3500 
L 1159 3500 
L 1159 2072 
L 3025 2072 
L 3025 3500 
L 3603 3500 
L 3603 0 
L 3025 0 
L 3025 1613 
L 1159 1613 
L 1159 0 
L 581 0 
L 581 3500 
z
" transform="scale(0.015625)"/>
       <path id="DejaVuSans-439" d="M 3578 3500 
L 3578 0 
L 3006 0 
L 3006 2809 
L 1319 0 
L 581 0 
L 581 3500 
L 1153 3500 
L 1153 697 
L 2838 3500 
L 3578 3500 
z
M 1102 4833 
L 1471 4833 
Q 1505 4599 1656 4481 
Q 1808 4364 2080 4364 
Q 2349 4364 2499 4480 
Q 2649 4596 2689 4833 
L 3058 4833 
Q 3027 4386 2780 4161 
Q 2533 3936 2080 3936 
Q 1627 3936 1380 4161 
Q 1133 4386 1102 4833 
z
" transform="scale(0.015625)"/>
      </defs>
      <use xlink:href="#DejaVuSans-41a"/>
      <use xlink:href="#DejaVuSans-43e" transform="translate(70.996094 0)"/>
      <use xlink:href="#DejaVuSans-43b" transform="translate(132.177734 0)"/>
      <use xlink:href="#DejaVuSans-438" transform="translate(196.09375 0)"/>
      <use xlink:href="#DejaVuSans-447" transform="translate(261.083984 0)"/>
      <use xlink:href="#DejaVuSans-435" transform="translate(320.166016 0)"/>
      <use xlink:href="#DejaVuSans-441" transform="translate(381.689453 0)"/>
      <use xlink:href="#DejaVuSans-442" transform="translate(436.669922 0)"/>
      <use xlink:href="#DejaVuSans-432" transform="translate(494.921875 0)"/>
      <use xlink:href="#DejaVuSans-43e" transform="translate(553.857422 0)"/>
      <use xlink:href="#DejaVuSans-20" transform="translate(615.039062 0)"/>
      <use xlink:href="#DejaVuSans-43e" transform="translate(646.826172 0)"/>
      <use xlink:href="#DejaVuSans-431" transform="translate(708.007812 0)"/>
      <use xlink:href="#DejaVuSans-44a" transform="translate(769.677734 0)"/>
      <use xlink:href="#DejaVuSans-44f" transform="translate(840.332031 0)"/>
      <use xlink:href="#DejaVuSans-432" transform="translate(900.488281 0)"/>
      <use xlink:href="#DejaVuSans-43b" transform="translate(959.423828 0)"/>
      <use xlink:href="#DejaVuSans-435" transform="translate(1023.339844 0)"/>
      <use xlink:href="#DejaVuSans-43d" transform="translate(1084.863281 0)"/>
      <use xlink:href="#DejaVuSans-438" transform="translate(1150.244141 0)"/>
      <use xlink:href="#DejaVuSans-439" transform="translate(1215.234375 0)"/>
     </g>
    </g>
   </g>
   <g id="patch_303">
    <path d="M 53.328125 273.312 
L 53.328125 7.2 
" style="fill: none; stroke: #000000; stroke-width: 0.8; stroke-linejoin: miter; stroke-linecap: square"/>
   </g>
   <g id="patch_304">
    <path d="M 410.448125 273.312 
L 410.448125 7.2 
" style="fill: none; stroke: #000000; stroke-width: 0.8; stroke-linejoin: miter; stroke-linecap: square"/>
   </g>
   <g id="patch_305">
    <path d="M 53.328125 273.312 
L 410.448125 273.312 
" style="fill: none; stroke: #000000; stroke-width: 0.8; stroke-linejoin: miter; stroke-linecap: square"/>
   </g>
   <g id="patch_306">
    <path d="M 53.328125 7.2 
L 410.448125 7.2 
" style="fill: none; stroke: #000000; stroke-width: 0.8; stroke-linejoin: miter; stroke-linecap: square"/>
   </g>
  </g>
 </g>
 <defs>
  <clipPath id="p6093d0a43f">
   <rect x="53.328125" y="7.2" width="357.12" height="266.112"/>
  </clipPath>
 </defs>
</svg>
