<?xml version="1.0" encoding="utf-8" standalone="no"?>
<!DOCTYPE svg PUBLIC "-//W3C//DTD SVG 1.1//EN"
  "http://www.w3.org/Graphics/SVG/1.1/DTD/svg11.dtd">
<svg xmlns:xlink="http://www.w3.org/1999/xlink" width="720pt" height="504pt" viewBox="0 0 720 504" xmlns="http://www.w3.org/2000/svg" version="1.1">
 <metadata>
  <rdf:RDF xmlns:dc="http://purl.org/dc/elements/1.1/" xmlns:cc="http://creativecommons.org/ns#" xmlns:rdf="http://www.w3.org/1999/02/22-rdf-syntax-ns#">
   <cc:Work>
    <dc:type rdf:resource="http://purl.org/dc/dcmitype/StillImage"/>
    <dc:date>2025-08-14T15:50:49.665382</dc:date>
    <dc:format>image/svg+xml</dc:format>
    <dc:creator>
     <cc:Agent>
      <dc:title>Matplotlib v3.10.5, https://matplotlib.org/</dc:title>
     </cc:Agent>
    </dc:creator>
   </cc:Work>
  </rdf:RDF>
 </metadata>
 <defs>
  <style type="text/css">*{stroke-linejoin: round; stroke-linecap: butt}</style>
 </defs>
 <g id="figure_1">
  <g id="patch_1">
   <path d="M 0 504 
L 720 504 
L 720 0 
L 0 0 
z
" style="fill: #ffffff"/>
  </g>
  <g id="axes_1">
   <g id="patch_2">
    <path d="M 89.99 390.063262 
L 704.88 390.063262 
L 704.88 47.3375 
L 89.99 47.3375 
z
" style="fill: #ffffff"/>
   </g>
   <g id="patch_3">
    <path d="M 117.939545 390.063262 
L 235.621842 390.063262 
L 235.621842 63.657774 
L 117.939545 63.657774 
z
" clip-path="url(#pe9b3b6a2fd)" style="fill: #4c72b0; stroke: #000000; stroke-width: 1.2; stroke-linejoin: miter"/>
   </g>
   <g id="patch_4">
    <path d="M 265.042416 390.063262 
L 382.724713 390.063262 
L 382.724713 167.853724 
L 265.042416 167.853724 
z
" clip-path="url(#pe9b3b6a2fd)" style="fill: #55a868; stroke: #000000; stroke-width: 1.2; stroke-linejoin: miter"/>
   </g>
   <g id="patch_5">
    <path d="M 412.145287 390.063262 
L 529.827584 390.063262 
L 529.827584 382.365323 
L 412.145287 382.365323 
z
" clip-path="url(#pe9b3b6a2fd)" style="fill: #c44e52; stroke: #000000; stroke-width: 1.2; stroke-linejoin: miter"/>
   </g>
   <g id="patch_6">
    <path d="M 559.248158 390.063262 
L 676.930455 390.063262 
L 676.930455 193.71751 
L 559.248158 193.71751 
z
" clip-path="url(#pe9b3b6a2fd)" style="fill: #8172b2; stroke: #000000; stroke-width: 1.2; stroke-linejoin: miter"/>
   </g>
   <g id="matplotlib.axis_1">
    <g id="xtick_1">
     <g id="line2d_1">
      <path d="M 176.780694 390.063262 
L 176.780694 47.3375 
" clip-path="url(#pe9b3b6a2fd)" style="fill: none; stroke: #b0b0b0; stroke-opacity: 0.3; stroke-width: 0.8; stroke-linecap: square"/>
     </g>
     <g id="line2d_2">
      <defs>
       <path id="m0e9eecb5c8" d="M 0 0 
L 0 3.5 
" style="stroke: #000000; stroke-width: 0.8"/>
      </defs>
      <g>
       <use xlink:href="#m0e9eecb5c8" x="176.780694" y="390.063262" style="stroke: #000000; stroke-width: 0.8"/>
      </g>
     </g>
     <g id="text_1">
      <!-- можно с детьми -->
      <g transform="translate(119.624414 438.504376) rotate(-15) scale(0.14 -0.14)">
       <defs>
        <path id="DejaVuSans-43c" d="M 581 3500 
L 1422 3500 
L 2416 1156 
L 3413 3500 
L 4247 3500 
L 4247 0 
L 3669 0 
L 3669 2950 
L 2703 672 
L 2128 672 
L 1159 2950 
L 1159 0 
L 581 0 
L 581 3500 
z
" transform="scale(0.015625)"/>
        <path id="DejaVuSans-43e" d="M 1959 3097 
Q 1497 3097 1228 2736 
Q 959 2375 959 1747 
Q 959 1119 1226 758 
Q 1494 397 1959 397 
Q 2419 397 2687 759 
Q 2956 1122 2956 1747 
Q 2956 2369 2687 2733 
Q 2419 3097 1959 3097 
z
M 1959 3584 
Q 2709 3584 3137 3096 
Q 3566 2609 3566 1747 
Q 3566 888 3137 398 
Q 2709 -91 1959 -91 
Q 1206 -91 779 398 
Q 353 888 353 1747 
Q 353 2609 779 3096 
Q 1206 3584 1959 3584 
z
" transform="scale(0.015625)"/>
        <path id="DejaVuSans-436" d="M 2597 3500 
L 3169 3500 
L 3169 1856 
L 4697 3500 
L 5366 3500 
L 4109 2153 
L 5547 0 
L 4931 0 
L 3753 1769 
L 3169 1141 
L 3169 0 
L 2597 0 
L 2597 1141 
L 2013 1769 
L 834 0 
L 219 0 
L 1656 2153 
L 400 3500 
L 1069 3500 
L 2597 1856 
L 2597 3500 
z
" transform="scale(0.015625)"/>
        <path id="DejaVuSans-43d" d="M 581 3500 
L 1159 3500 
L 1159 2072 
L 3025 2072 
L 3025 3500 
L 3603 3500 
L 3603 0 
L 3025 0 
L 3025 1613 
L 1159 1613 
L 1159 0 
L 581 0 
L 581 3500 
z
" transform="scale(0.015625)"/>
        <path id="DejaVuSans-20" transform="scale(0.015625)"/>
        <path id="DejaVuSans-441" d="M 3122 3366 
L 3122 2828 
Q 2878 2963 2633 3030 
Q 2388 3097 2138 3097 
Q 1578 3097 1268 2742 
Q 959 2388 959 1747 
Q 959 1106 1268 751 
Q 1578 397 2138 397 
Q 2388 397 2633 464 
Q 2878 531 3122 666 
L 3122 134 
Q 2881 22 2623 -34 
Q 2366 -91 2075 -91 
Q 1284 -91 818 406 
Q 353 903 353 1747 
Q 353 2603 823 3093 
Q 1294 3584 2113 3584 
Q 2378 3584 2631 3529 
Q 2884 3475 3122 3366 
z
" transform="scale(0.015625)"/>
        <path id="DejaVuSans-434" d="M 1384 459 
L 3053 459 
L 3053 3041 
L 1844 3041 
L 1844 2603 
Q 1844 1316 1475 628 
L 1384 459 
z
M 550 459 
Q 834 584 959 850 
Q 1266 1509 1266 2838 
L 1266 3500 
L 3631 3500 
L 3631 459 
L 4091 459 
L 4091 -884 
L 3631 -884 
L 3631 0 
L 794 0 
L 794 -884 
L 334 -884 
L 334 459 
L 550 459 
z
" transform="scale(0.015625)"/>
        <path id="DejaVuSans-435" d="M 3597 1894 
L 3597 1613 
L 953 1613 
Q 991 1019 1311 708 
Q 1631 397 2203 397 
Q 2534 397 2845 478 
Q 3156 559 3463 722 
L 3463 178 
Q 3153 47 2828 -22 
Q 2503 -91 2169 -91 
Q 1331 -91 842 396 
Q 353 884 353 1716 
Q 353 2575 817 3079 
Q 1281 3584 2069 3584 
Q 2775 3584 3186 3129 
Q 3597 2675 3597 1894 
z
M 3022 2063 
Q 3016 2534 2758 2815 
Q 2500 3097 2075 3097 
Q 1594 3097 1305 2825 
Q 1016 2553 972 2059 
L 3022 2063 
z
" transform="scale(0.015625)"/>
        <path id="DejaVuSans-442" d="M 188 3500 
L 3541 3500 
L 3541 3041 
L 2147 3041 
L 2147 0 
L 1581 0 
L 1581 3041 
L 188 3041 
L 188 3500 
z
" transform="scale(0.015625)"/>
        <path id="DejaVuSans-44c" d="M 2781 1038 
Q 2781 1319 2576 1466 
Q 2372 1613 1978 1613 
L 1159 1613 
L 1159 459 
L 1978 459 
Q 2372 459 2576 607 
Q 2781 756 2781 1038 
z
M 581 3500 
L 1159 3500 
L 1159 2072 
L 2003 2072 
Q 2672 2072 3033 1817 
Q 3394 1563 3394 1038 
Q 3394 513 3033 256 
Q 2672 0 2003 0 
L 581 0 
L 581 3500 
z
" transform="scale(0.015625)"/>
        <path id="DejaVuSans-438" d="M 3578 3500 
L 3578 0 
L 3006 0 
L 3006 2809 
L 1319 0 
L 581 0 
L 581 3500 
L 1153 3500 
L 1153 697 
L 2838 3500 
L 3578 3500 
z
" transform="scale(0.015625)"/>
       </defs>
       <use xlink:href="#DejaVuSans-43c"/>
       <use xlink:href="#DejaVuSans-43e" transform="translate(75.439453 0)"/>
       <use xlink:href="#DejaVuSans-436" transform="translate(136.621094 0)"/>
       <use xlink:href="#DejaVuSans-43d" transform="translate(226.708984 0)"/>
       <use xlink:href="#DejaVuSans-43e" transform="translate(292.089844 0)"/>
       <use xlink:href="#DejaVuSans-20" transform="translate(353.271484 0)"/>
       <use xlink:href="#DejaVuSans-441" transform="translate(385.058594 0)"/>
       <use xlink:href="#DejaVuSans-20" transform="translate(440.039062 0)"/>
       <use xlink:href="#DejaVuSans-434" transform="translate(471.826172 0)"/>
       <use xlink:href="#DejaVuSans-435" transform="translate(540.966797 0)"/>
       <use xlink:href="#DejaVuSans-442" transform="translate(602.490234 0)"/>
       <use xlink:href="#DejaVuSans-44c" transform="translate(660.742188 0)"/>
       <use xlink:href="#DejaVuSans-43c" transform="translate(719.677734 0)"/>
       <use xlink:href="#DejaVuSans-438" transform="translate(795.117188 0)"/>
      </g>
     </g>
    </g>
    <g id="xtick_2">
     <g id="line2d_3">
      <path d="M 323.883565 390.063262 
L 323.883565 47.3375 
" clip-path="url(#pe9b3b6a2fd)" style="fill: none; stroke: #b0b0b0; stroke-opacity: 0.3; stroke-width: 0.8; stroke-linecap: square"/>
     </g>
     <g id="line2d_4">
      <g>
       <use xlink:href="#m0e9eecb5c8" x="323.883565" y="390.063262" style="stroke: #000000; stroke-width: 0.8"/>
      </g>
     </g>
     <g id="text_2">
      <!-- можно с детьми -->
      <g transform="translate(264.69854 442.669947) rotate(-15) scale(0.14 -0.14)">
       <use xlink:href="#DejaVuSans-43c"/>
       <use xlink:href="#DejaVuSans-43e" transform="translate(75.439453 0)"/>
       <use xlink:href="#DejaVuSans-436" transform="translate(136.621094 0)"/>
       <use xlink:href="#DejaVuSans-43d" transform="translate(226.708984 0)"/>
       <use xlink:href="#DejaVuSans-43e" transform="translate(292.089844 0)"/>
       <use xlink:href="#DejaVuSans-20" transform="translate(353.271484 0)"/>
       <use xlink:href="#DejaVuSans-441" transform="translate(385.058594 0)"/>
       <use xlink:href="#DejaVuSans-20" transform="translate(440.039062 0)"/>
       <use xlink:href="#DejaVuSans-434" transform="translate(471.826172 0)"/>
       <use xlink:href="#DejaVuSans-435" transform="translate(540.966797 0)"/>
       <use xlink:href="#DejaVuSans-442" transform="translate(602.490234 0)"/>
       <use xlink:href="#DejaVuSans-44c" transform="translate(660.742188 0)"/>
       <use xlink:href="#DejaVuSans-43c" transform="translate(719.677734 0)"/>
       <use xlink:href="#DejaVuSans-438" transform="translate(795.117188 0)"/>
      </g>
      <!-- можно с животными -->
      <g transform="translate(253.209906 461.978277) rotate(-15) scale(0.14 -0.14)">
       <defs>
        <path id="DejaVuSans-432" d="M 1156 1613 
L 1156 459 
L 1975 459 
Q 2369 459 2575 607 
Q 2781 756 2781 1038 
Q 2781 1319 2575 1466 
Q 2369 1613 1975 1613 
L 1156 1613 
z
M 1156 3041 
L 1156 2072 
L 1913 2072 
Q 2238 2072 2444 2201 
Q 2650 2331 2650 2563 
Q 2650 2794 2444 2917 
Q 2238 3041 1913 3041 
L 1156 3041 
z
M 581 3500 
L 1950 3500 
Q 2566 3500 2897 3275 
Q 3228 3050 3228 2634 
Q 3228 2313 3059 2123 
Q 2891 1934 2559 1888 
Q 2956 1813 3175 1575 
Q 3394 1338 3394 981 
Q 3394 513 3033 256 
Q 2672 0 2003 0 
L 581 0 
L 581 3500 
z
" transform="scale(0.015625)"/>
        <path id="DejaVuSans-44b" d="M 3907 3500 
L 4482 3500 
L 4482 0 
L 3907 0 
L 3907 3500 
z
M 4195 3584 
L 4195 3584 
z
M 2781 1038 
Q 2781 1319 2576 1466 
Q 2372 1613 1978 1613 
L 1159 1613 
L 1159 459 
L 1978 459 
Q 2372 459 2576 607 
Q 2781 756 2781 1038 
z
M 581 3500 
L 1159 3500 
L 1159 2072 
L 2003 2072 
Q 2672 2072 3033 1817 
Q 3394 1563 3394 1038 
Q 3394 513 3033 256 
Q 2672 0 2003 0 
L 581 0 
L 581 3500 
z
" transform="scale(0.015625)"/>
       </defs>
       <use xlink:href="#DejaVuSans-43c"/>
       <use xlink:href="#DejaVuSans-43e" transform="translate(75.439453 0)"/>
       <use xlink:href="#DejaVuSans-436" transform="translate(136.621094 0)"/>
       <use xlink:href="#DejaVuSans-43d" transform="translate(226.708984 0)"/>
       <use xlink:href="#DejaVuSans-43e" transform="translate(292.089844 0)"/>
       <use xlink:href="#DejaVuSans-20" transform="translate(353.271484 0)"/>
       <use xlink:href="#DejaVuSans-441" transform="translate(385.058594 0)"/>
       <use xlink:href="#DejaVuSans-20" transform="translate(440.039062 0)"/>
       <use xlink:href="#DejaVuSans-436" transform="translate(471.826172 0)"/>
       <use xlink:href="#DejaVuSans-438" transform="translate(561.914062 0)"/>
       <use xlink:href="#DejaVuSans-432" transform="translate(626.904297 0)"/>
       <use xlink:href="#DejaVuSans-43e" transform="translate(685.839844 0)"/>
       <use xlink:href="#DejaVuSans-442" transform="translate(747.021484 0)"/>
       <use xlink:href="#DejaVuSans-43d" transform="translate(805.273438 0)"/>
       <use xlink:href="#DejaVuSans-44b" transform="translate(870.654297 0)"/>
       <use xlink:href="#DejaVuSans-43c" transform="translate(949.609375 0)"/>
       <use xlink:href="#DejaVuSans-438" transform="translate(1025.048828 0)"/>
      </g>
     </g>
    </g>
    <g id="xtick_3">
     <g id="line2d_5">
      <path d="M 470.986435 390.063262 
L 470.986435 47.3375 
" clip-path="url(#pe9b3b6a2fd)" style="fill: none; stroke: #b0b0b0; stroke-opacity: 0.3; stroke-width: 0.8; stroke-linecap: square"/>
     </g>
     <g id="line2d_6">
      <g>
       <use xlink:href="#m0e9eecb5c8" x="470.986435" y="390.063262" style="stroke: #000000; stroke-width: 0.8"/>
      </g>
     </g>
     <g id="text_3">
      <!-- можно с животными -->
      <g transform="translate(398.284032 446.835518) rotate(-15) scale(0.14 -0.14)">
       <use xlink:href="#DejaVuSans-43c"/>
       <use xlink:href="#DejaVuSans-43e" transform="translate(75.439453 0)"/>
       <use xlink:href="#DejaVuSans-436" transform="translate(136.621094 0)"/>
       <use xlink:href="#DejaVuSans-43d" transform="translate(226.708984 0)"/>
       <use xlink:href="#DejaVuSans-43e" transform="translate(292.089844 0)"/>
       <use xlink:href="#DejaVuSans-20" transform="translate(353.271484 0)"/>
       <use xlink:href="#DejaVuSans-441" transform="translate(385.058594 0)"/>
       <use xlink:href="#DejaVuSans-20" transform="translate(440.039062 0)"/>
       <use xlink:href="#DejaVuSans-436" transform="translate(471.826172 0)"/>
       <use xlink:href="#DejaVuSans-438" transform="translate(561.914062 0)"/>
       <use xlink:href="#DejaVuSans-432" transform="translate(626.904297 0)"/>
       <use xlink:href="#DejaVuSans-43e" transform="translate(685.839844 0)"/>
       <use xlink:href="#DejaVuSans-442" transform="translate(747.021484 0)"/>
       <use xlink:href="#DejaVuSans-43d" transform="translate(805.273438 0)"/>
       <use xlink:href="#DejaVuSans-44b" transform="translate(870.654297 0)"/>
       <use xlink:href="#DejaVuSans-43c" transform="translate(949.609375 0)"/>
       <use xlink:href="#DejaVuSans-438" transform="translate(1025.048828 0)"/>
      </g>
     </g>
    </g>
    <g id="xtick_4">
     <g id="line2d_7">
      <path d="M 618.089306 390.063262 
L 618.089306 47.3375 
" clip-path="url(#pe9b3b6a2fd)" style="fill: none; stroke: #b0b0b0; stroke-opacity: 0.3; stroke-width: 0.8; stroke-linecap: square"/>
     </g>
     <g id="line2d_8">
      <g>
       <use xlink:href="#m0e9eecb5c8" x="618.089306" y="390.063262" style="stroke: #000000; stroke-width: 0.8"/>
      </g>
     </g>
     <g id="text_4">
      <!-- не указано -->
      <g transform="translate(579.833478 428.375654) rotate(-15) scale(0.14 -0.14)">
       <defs>
        <path id="DejaVuSans-443" d="M 2059 -325 
Q 1816 -950 1584 -1140 
Q 1353 -1331 966 -1331 
L 506 -1331 
L 506 -850 
L 844 -850 
Q 1081 -850 1212 -737 
Q 1344 -625 1503 -206 
L 1606 56 
L 191 3500 
L 800 3500 
L 1894 763 
L 2988 3500 
L 3597 3500 
L 2059 -325 
z
" transform="scale(0.015625)"/>
        <path id="DejaVuSans-43a" d="M 581 3500 
L 1153 3500 
L 1153 1856 
L 2775 3500 
L 3481 3500 
L 2144 2147 
L 3653 0 
L 3009 0 
L 1769 1766 
L 1153 1141 
L 1153 0 
L 581 0 
L 581 3500 
z
" transform="scale(0.015625)"/>
        <path id="DejaVuSans-430" d="M 2194 1759 
Q 1497 1759 1228 1600 
Q 959 1441 959 1056 
Q 959 750 1161 570 
Q 1363 391 1709 391 
Q 2188 391 2477 730 
Q 2766 1069 2766 1631 
L 2766 1759 
L 2194 1759 
z
M 3341 1997 
L 3341 0 
L 2766 0 
L 2766 531 
Q 2569 213 2275 61 
Q 1981 -91 1556 -91 
Q 1019 -91 701 211 
Q 384 513 384 1019 
Q 384 1609 779 1909 
Q 1175 2209 1959 2209 
L 2766 2209 
L 2766 2266 
Q 2766 2663 2505 2880 
Q 2244 3097 1772 3097 
Q 1472 3097 1187 3025 
Q 903 2953 641 2809 
L 641 3341 
Q 956 3463 1253 3523 
Q 1550 3584 1831 3584 
Q 2591 3584 2966 3190 
Q 3341 2797 3341 1997 
z
" transform="scale(0.015625)"/>
        <path id="DejaVuSans-437" d="M 2206 1888 
Q 2594 1813 2809 1584 
Q 3025 1356 3025 1019 
Q 3025 478 2622 193 
Q 2219 -91 1475 -91 
Q 1225 -91 961 -47 
Q 697 -3 416 84 
L 416 619 
Q 638 503 903 445 
Q 1169 388 1459 388 
Q 1931 388 2195 563 
Q 2459 738 2459 1019 
Q 2459 1294 2225 1461 
Q 1991 1628 1563 1628 
L 1100 1628 
L 1100 2103 
L 1584 2103 
Q 1947 2103 2158 2242 
Q 2369 2381 2369 2600 
Q 2369 2800 2151 2944 
Q 1934 3088 1563 3088 
Q 1341 3088 1089 3047 
Q 838 3006 534 2916 
L 534 3438 
Q 841 3513 1106 3550 
Q 1372 3588 1609 3588 
Q 2222 3588 2576 3342 
Q 2931 3097 2931 2656 
Q 2931 2366 2743 2164 
Q 2556 1963 2206 1888 
z
" transform="scale(0.015625)"/>
       </defs>
       <use xlink:href="#DejaVuSans-43d"/>
       <use xlink:href="#DejaVuSans-435" transform="translate(65.380859 0)"/>
       <use xlink:href="#DejaVuSans-20" transform="translate(126.904297 0)"/>
       <use xlink:href="#DejaVuSans-443" transform="translate(158.691406 0)"/>
       <use xlink:href="#DejaVuSans-43a" transform="translate(217.871094 0)"/>
       <use xlink:href="#DejaVuSans-430" transform="translate(278.271484 0)"/>
       <use xlink:href="#DejaVuSans-437" transform="translate(339.550781 0)"/>
       <use xlink:href="#DejaVuSans-430" transform="translate(392.724609 0)"/>
       <use xlink:href="#DejaVuSans-43d" transform="translate(454.003906 0)"/>
       <use xlink:href="#DejaVuSans-43e" transform="translate(519.384766 0)"/>
      </g>
     </g>
    </g>
    <g id="text_5">
     <!-- Тип разрешения -->
     <g transform="translate(336.554688 485.428443) scale(0.14 -0.14)">
      <defs>
       <path id="DejaVuSans-422" d="M -19 4666 
L 3928 4666 
L 3928 4134 
L 2272 4134 
L 2272 0 
L 1638 0 
L 1638 4134 
L -19 4134 
L -19 4666 
z
" transform="scale(0.015625)"/>
       <path id="DejaVuSans-43f" d="M 3603 3500 
L 3603 0 
L 3025 0 
L 3025 3041 
L 1159 3041 
L 1159 0 
L 581 0 
L 581 3500 
L 3603 3500 
z
" transform="scale(0.015625)"/>
       <path id="DejaVuSans-440" d="M 1159 525 
L 1159 -1331 
L 581 -1331 
L 581 3500 
L 1159 3500 
L 1159 2969 
Q 1341 3281 1617 3432 
Q 1894 3584 2278 3584 
Q 2916 3584 3314 3078 
Q 3713 2572 3713 1747 
Q 3713 922 3314 415 
Q 2916 -91 2278 -91 
Q 1894 -91 1617 61 
Q 1341 213 1159 525 
z
M 3116 1747 
Q 3116 2381 2855 2742 
Q 2594 3103 2138 3103 
Q 1681 3103 1420 2742 
Q 1159 2381 1159 1747 
Q 1159 1113 1420 752 
Q 1681 391 2138 391 
Q 2594 391 2855 752 
Q 3116 1113 3116 1747 
z
" transform="scale(0.015625)"/>
       <path id="DejaVuSans-448" d="M 3216 459 
L 4697 459 
L 4697 3500 
L 5275 3500 
L 5275 0 
L 581 0 
L 581 3500 
L 1159 3500 
L 1159 459 
L 2638 459 
L 2638 3500 
L 3216 3500 
L 3216 459 
z
" transform="scale(0.015625)"/>
       <path id="DejaVuSans-44f" d="M 1181 2491 
Q 1181 2231 1381 2084 
Q 1581 1938 1953 1938 
L 2728 1938 
L 2728 3041 
L 1953 3041 
Q 1581 3041 1381 2897 
Q 1181 2753 1181 2491 
z
M 363 0 
L 1431 1534 
Q 1069 1616 828 1830 
Q 588 2044 588 2491 
Q 588 2997 923 3248 
Q 1259 3500 1938 3500 
L 3306 3500 
L 3306 0 
L 2728 0 
L 2728 1478 
L 2013 1478 
L 981 0 
L 363 0 
z
" transform="scale(0.015625)"/>
      </defs>
      <use xlink:href="#DejaVuSans-422"/>
      <use xlink:href="#DejaVuSans-438" transform="translate(61.083984 0)"/>
      <use xlink:href="#DejaVuSans-43f" transform="translate(126.074219 0)"/>
      <use xlink:href="#DejaVuSans-20" transform="translate(191.455078 0)"/>
      <use xlink:href="#DejaVuSans-440" transform="translate(223.242188 0)"/>
      <use xlink:href="#DejaVuSans-430" transform="translate(286.71875 0)"/>
      <use xlink:href="#DejaVuSans-437" transform="translate(347.998047 0)"/>
      <use xlink:href="#DejaVuSans-440" transform="translate(401.171875 0)"/>
      <use xlink:href="#DejaVuSans-435" transform="translate(464.648438 0)"/>
      <use xlink:href="#DejaVuSans-448" transform="translate(526.171875 0)"/>
      <use xlink:href="#DejaVuSans-435" transform="translate(617.675781 0)"/>
      <use xlink:href="#DejaVuSans-43d" transform="translate(679.199219 0)"/>
      <use xlink:href="#DejaVuSans-438" transform="translate(744.580078 0)"/>
      <use xlink:href="#DejaVuSans-44f" transform="translate(809.570312 0)"/>
     </g>
    </g>
   </g>
   <g id="matplotlib.axis_2">
    <g id="ytick_1">
     <g id="line2d_9">
      <path d="M 89.99 390.063262 
L 704.88 390.063262 
" clip-path="url(#pe9b3b6a2fd)" style="fill: none; stroke-dasharray: 2.96,1.28; stroke-dashoffset: 0; stroke: #b0b0b0; stroke-opacity: 0.4; stroke-width: 0.8"/>
     </g>
     <g id="line2d_10">
      <defs>
       <path id="m1c5c0f3dc7" d="M 0 0 
L -3.5 0 
" style="stroke: #000000; stroke-width: 0.8"/>
      </defs>
      <g>
       <use xlink:href="#m1c5c0f3dc7" x="89.99" y="390.063262" style="stroke: #000000; stroke-width: 0.8"/>
      </g>
     </g>
     <g id="text_6">
      <!-- 0 -->
      <g transform="translate(74.0825 395.382168) scale(0.14 -0.14)">
       <defs>
        <path id="DejaVuSans-30" d="M 2034 4250 
Q 1547 4250 1301 3770 
Q 1056 3291 1056 2328 
Q 1056 1369 1301 889 
Q 1547 409 2034 409 
Q 2525 409 2770 889 
Q 3016 1369 3016 2328 
Q 3016 3291 2770 3770 
Q 2525 4250 2034 4250 
z
M 2034 4750 
Q 2819 4750 3233 4129 
Q 3647 3509 3647 2328 
Q 3647 1150 3233 529 
Q 2819 -91 2034 -91 
Q 1250 -91 836 529 
Q 422 1150 422 2328 
Q 422 3509 836 4129 
Q 1250 4750 2034 4750 
z
" transform="scale(0.015625)"/>
       </defs>
       <use xlink:href="#DejaVuSans-30"/>
      </g>
     </g>
    </g>
    <g id="ytick_2">
     <g id="line2d_11">
      <path d="M 89.99 325.645364 
L 704.88 325.645364 
" clip-path="url(#pe9b3b6a2fd)" style="fill: none; stroke-dasharray: 2.96,1.28; stroke-dashoffset: 0; stroke: #b0b0b0; stroke-opacity: 0.4; stroke-width: 0.8"/>
     </g>
     <g id="line2d_12">
      <g>
       <use xlink:href="#m1c5c0f3dc7" x="89.99" y="325.645364" style="stroke: #000000; stroke-width: 0.8"/>
      </g>
     </g>
     <g id="text_7">
      <!-- 2000 -->
      <g transform="translate(47.36 330.964271) scale(0.14 -0.14)">
       <defs>
        <path id="DejaVuSans-32" d="M 1228 531 
L 3431 531 
L 3431 0 
L 469 0 
L 469 531 
Q 828 903 1448 1529 
Q 2069 2156 2228 2338 
Q 2531 2678 2651 2914 
Q 2772 3150 2772 3378 
Q 2772 3750 2511 3984 
Q 2250 4219 1831 4219 
Q 1534 4219 1204 4116 
Q 875 4013 500 3803 
L 500 4441 
Q 881 4594 1212 4672 
Q 1544 4750 1819 4750 
Q 2544 4750 2975 4387 
Q 3406 4025 3406 3419 
Q 3406 3131 3298 2873 
Q 3191 2616 2906 2266 
Q 2828 2175 2409 1742 
Q 1991 1309 1228 531 
z
" transform="scale(0.015625)"/>
       </defs>
       <use xlink:href="#DejaVuSans-32"/>
       <use xlink:href="#DejaVuSans-30" transform="translate(63.623047 0)"/>
       <use xlink:href="#DejaVuSans-30" transform="translate(127.246094 0)"/>
       <use xlink:href="#DejaVuSans-30" transform="translate(190.869141 0)"/>
      </g>
     </g>
    </g>
    <g id="ytick_3">
     <g id="line2d_13">
      <path d="M 89.99 261.227467 
L 704.88 261.227467 
" clip-path="url(#pe9b3b6a2fd)" style="fill: none; stroke-dasharray: 2.96,1.28; stroke-dashoffset: 0; stroke: #b0b0b0; stroke-opacity: 0.4; stroke-width: 0.8"/>
     </g>
     <g id="line2d_14">
      <g>
       <use xlink:href="#m1c5c0f3dc7" x="89.99" y="261.227467" style="stroke: #000000; stroke-width: 0.8"/>
      </g>
     </g>
     <g id="text_8">
      <!-- 4000 -->
      <g transform="translate(47.36 266.546373) scale(0.14 -0.14)">
       <defs>
        <path id="DejaVuSans-34" d="M 2419 4116 
L 825 1625 
L 2419 1625 
L 2419 4116 
z
M 2253 4666 
L 3047 4666 
L 3047 1625 
L 3713 1625 
L 3713 1100 
L 3047 1100 
L 3047 0 
L 2419 0 
L 2419 1100 
L 313 1100 
L 313 1709 
L 2253 4666 
z
" transform="scale(0.015625)"/>
       </defs>
       <use xlink:href="#DejaVuSans-34"/>
       <use xlink:href="#DejaVuSans-30" transform="translate(63.623047 0)"/>
       <use xlink:href="#DejaVuSans-30" transform="translate(127.246094 0)"/>
       <use xlink:href="#DejaVuSans-30" transform="translate(190.869141 0)"/>
      </g>
     </g>
    </g>
    <g id="ytick_4">
     <g id="line2d_15">
      <path d="M 89.99 196.809569 
L 704.88 196.809569 
" clip-path="url(#pe9b3b6a2fd)" style="fill: none; stroke-dasharray: 2.96,1.28; stroke-dashoffset: 0; stroke: #b0b0b0; stroke-opacity: 0.4; stroke-width: 0.8"/>
     </g>
     <g id="line2d_16">
      <g>
       <use xlink:href="#m1c5c0f3dc7" x="89.99" y="196.809569" style="stroke: #000000; stroke-width: 0.8"/>
      </g>
     </g>
     <g id="text_9">
      <!-- 6000 -->
      <g transform="translate(47.36 202.128475) scale(0.14 -0.14)">
       <defs>
        <path id="DejaVuSans-36" d="M 2113 2584 
Q 1688 2584 1439 2293 
Q 1191 2003 1191 1497 
Q 1191 994 1439 701 
Q 1688 409 2113 409 
Q 2538 409 2786 701 
Q 3034 994 3034 1497 
Q 3034 2003 2786 2293 
Q 2538 2584 2113 2584 
z
M 3366 4563 
L 3366 3988 
Q 3128 4100 2886 4159 
Q 2644 4219 2406 4219 
Q 1781 4219 1451 3797 
Q 1122 3375 1075 2522 
Q 1259 2794 1537 2939 
Q 1816 3084 2150 3084 
Q 2853 3084 3261 2657 
Q 3669 2231 3669 1497 
Q 3669 778 3244 343 
Q 2819 -91 2113 -91 
Q 1303 -91 875 529 
Q 447 1150 447 2328 
Q 447 3434 972 4092 
Q 1497 4750 2381 4750 
Q 2619 4750 2861 4703 
Q 3103 4656 3366 4563 
z
" transform="scale(0.015625)"/>
       </defs>
       <use xlink:href="#DejaVuSans-36"/>
       <use xlink:href="#DejaVuSans-30" transform="translate(63.623047 0)"/>
       <use xlink:href="#DejaVuSans-30" transform="translate(127.246094 0)"/>
       <use xlink:href="#DejaVuSans-30" transform="translate(190.869141 0)"/>
      </g>
     </g>
    </g>
    <g id="ytick_5">
     <g id="line2d_17">
      <path d="M 89.99 132.391671 
L 704.88 132.391671 
" clip-path="url(#pe9b3b6a2fd)" style="fill: none; stroke-dasharray: 2.96,1.28; stroke-dashoffset: 0; stroke: #b0b0b0; stroke-opacity: 0.4; stroke-width: 0.8"/>
     </g>
     <g id="line2d_18">
      <g>
       <use xlink:href="#m1c5c0f3dc7" x="89.99" y="132.391671" style="stroke: #000000; stroke-width: 0.8"/>
      </g>
     </g>
     <g id="text_10">
      <!-- 8000 -->
      <g transform="translate(47.36 137.710577) scale(0.14 -0.14)">
       <defs>
        <path id="DejaVuSans-38" d="M 2034 2216 
Q 1584 2216 1326 1975 
Q 1069 1734 1069 1313 
Q 1069 891 1326 650 
Q 1584 409 2034 409 
Q 2484 409 2743 651 
Q 3003 894 3003 1313 
Q 3003 1734 2745 1975 
Q 2488 2216 2034 2216 
z
M 1403 2484 
Q 997 2584 770 2862 
Q 544 3141 544 3541 
Q 544 4100 942 4425 
Q 1341 4750 2034 4750 
Q 2731 4750 3128 4425 
Q 3525 4100 3525 3541 
Q 3525 3141 3298 2862 
Q 3072 2584 2669 2484 
Q 3125 2378 3379 2068 
Q 3634 1759 3634 1313 
Q 3634 634 3220 271 
Q 2806 -91 2034 -91 
Q 1263 -91 848 271 
Q 434 634 434 1313 
Q 434 1759 690 2068 
Q 947 2378 1403 2484 
z
M 1172 3481 
Q 1172 3119 1398 2916 
Q 1625 2713 2034 2713 
Q 2441 2713 2670 2916 
Q 2900 3119 2900 3481 
Q 2900 3844 2670 4047 
Q 2441 4250 2034 4250 
Q 1625 4250 1398 4047 
Q 1172 3844 1172 3481 
z
" transform="scale(0.015625)"/>
       </defs>
       <use xlink:href="#DejaVuSans-38"/>
       <use xlink:href="#DejaVuSans-30" transform="translate(63.623047 0)"/>
       <use xlink:href="#DejaVuSans-30" transform="translate(127.246094 0)"/>
       <use xlink:href="#DejaVuSans-30" transform="translate(190.869141 0)"/>
      </g>
     </g>
    </g>
    <g id="ytick_6">
     <g id="line2d_19">
      <path d="M 89.99 67.973774 
L 704.88 67.973774 
" clip-path="url(#pe9b3b6a2fd)" style="fill: none; stroke-dasharray: 2.96,1.28; stroke-dashoffset: 0; stroke: #b0b0b0; stroke-opacity: 0.4; stroke-width: 0.8"/>
     </g>
     <g id="line2d_20">
      <g>
       <use xlink:href="#m1c5c0f3dc7" x="89.99" y="67.973774" style="stroke: #000000; stroke-width: 0.8"/>
      </g>
     </g>
     <g id="text_11">
      <!-- 10000 -->
      <g transform="translate(38.4525 73.29268) scale(0.14 -0.14)">
       <defs>
        <path id="DejaVuSans-31" d="M 794 531 
L 1825 531 
L 1825 4091 
L 703 3866 
L 703 4441 
L 1819 4666 
L 2450 4666 
L 2450 531 
L 3481 531 
L 3481 0 
L 794 0 
L 794 531 
z
" transform="scale(0.015625)"/>
       </defs>
       <use xlink:href="#DejaVuSans-31"/>
       <use xlink:href="#DejaVuSans-30" transform="translate(63.623047 0)"/>
       <use xlink:href="#DejaVuSans-30" transform="translate(127.246094 0)"/>
       <use xlink:href="#DejaVuSans-30" transform="translate(190.869141 0)"/>
       <use xlink:href="#DejaVuSans-30" transform="translate(254.492188 0)"/>
      </g>
     </g>
    </g>
    <g id="text_12">
     <!-- Количество объявлений -->
     <g transform="translate(25.540938 308.317881) rotate(-90) scale(0.14 -0.14)">
      <defs>
       <path id="DejaVuSans-41a" d="M 628 4666 
L 1259 4666 
L 1259 2359 
L 3516 4666 
L 4325 4666 
L 2522 2822 
L 4419 0 
L 3731 0 
L 2113 2403 
L 1259 1531 
L 1259 0 
L 628 0 
L 628 4666 
z
" transform="scale(0.015625)"/>
       <path id="DejaVuSans-43b" d="M 238 0 
L 238 478 
Q 806 566 981 959 
Q 1194 1513 1194 2928 
L 1194 3500 
L 3559 3500 
L 3559 0 
L 2984 0 
L 2984 3041 
L 1769 3041 
L 1769 2694 
Q 1769 1344 1494 738 
Q 1200 91 238 0 
z
" transform="scale(0.015625)"/>
       <path id="DejaVuSans-447" d="M 2625 0 
L 2625 1472 
L 1553 1472 
Q 1075 1472 756 1769 
Q 469 2038 469 2613 
L 469 3500 
L 1044 3500 
L 1044 2666 
Q 1044 2300 1206 2116 
Q 1372 1931 1697 1931 
L 2625 1931 
L 2625 3500 
L 3200 3500 
L 3200 0 
L 2625 0 
z
" transform="scale(0.015625)"/>
       <path id="DejaVuSans-431" d="M 1991 3584 
Q 2741 3584 3169 3096 
Q 3597 2609 3597 1747 
Q 3597 888 3169 398 
Q 2741 -91 1991 -91 
Q 1238 -91 822 384 
Q 406 859 384 1747 
L 366 2463 
Q 350 2834 350 2963 
Q 350 3463 531 3831 
Q 816 4409 1308 4659 
Q 1800 4909 2625 4916 
Q 3006 4919 3175 4972 
L 3334 4516 
Q 3181 4453 3041 4450 
L 2259 4397 
Q 1866 4369 1628 4231 
Q 1006 3866 947 3388 
L 925 3213 
Q 1331 3584 1991 3584 
z
M 1991 3097 
Q 1528 3097 1259 2736 
Q 991 2375 991 1747 
Q 991 1119 1258 758 
Q 1525 397 1991 397 
Q 2450 397 2719 759 
Q 2988 1122 2988 1747 
Q 2988 2369 2719 2733 
Q 2450 3097 1991 3097 
z
" transform="scale(0.015625)"/>
       <path id="DejaVuSans-44a" d="M 2753 2072 
Q 3422 2072 3783 1817 
Q 4144 1563 4144 1038 
Q 4144 513 3783 256 
Q 3422 0 2753 0 
L 1328 0 
L 1328 3041 
L 194 3041 
L 194 3500 
L 1906 3500 
L 1906 2072 
L 2753 2072 
z
M 2728 1613 
L 1906 1613 
L 1906 459 
L 2728 459 
Q 3122 459 3326 607 
Q 3531 756 3531 1038 
Q 3531 1319 3326 1466 
Q 3122 1613 2728 1613 
z
" transform="scale(0.015625)"/>
       <path id="DejaVuSans-439" d="M 3578 3500 
L 3578 0 
L 3006 0 
L 3006 2809 
L 1319 0 
L 581 0 
L 581 3500 
L 1153 3500 
L 1153 697 
L 2838 3500 
L 3578 3500 
z
M 1102 4833 
L 1471 4833 
Q 1505 4599 1656 4481 
Q 1808 4364 2080 4364 
Q 2349 4364 2499 4480 
Q 2649 4596 2689 4833 
L 3058 4833 
Q 3027 4386 2780 4161 
Q 2533 3936 2080 3936 
Q 1627 3936 1380 4161 
Q 1133 4386 1102 4833 
z
" transform="scale(0.015625)"/>
      </defs>
      <use xlink:href="#DejaVuSans-41a"/>
      <use xlink:href="#DejaVuSans-43e" transform="translate(70.996094 0)"/>
      <use xlink:href="#DejaVuSans-43b" transform="translate(132.177734 0)"/>
      <use xlink:href="#DejaVuSans-438" transform="translate(196.09375 0)"/>
      <use xlink:href="#DejaVuSans-447" transform="translate(261.083984 0)"/>
      <use xlink:href="#DejaVuSans-435" transform="translate(320.166016 0)"/>
      <use xlink:href="#DejaVuSans-441" transform="translate(381.689453 0)"/>
      <use xlink:href="#DejaVuSans-442" transform="translate(436.669922 0)"/>
      <use xlink:href="#DejaVuSans-432" transform="translate(494.921875 0)"/>
      <use xlink:href="#DejaVuSans-43e" transform="translate(553.857422 0)"/>
      <use xlink:href="#DejaVuSans-20" transform="translate(615.039062 0)"/>
      <use xlink:href="#DejaVuSans-43e" transform="translate(646.826172 0)"/>
      <use xlink:href="#DejaVuSans-431" transform="translate(708.007812 0)"/>
      <use xlink:href="#DejaVuSans-44a" transform="translate(769.677734 0)"/>
      <use xlink:href="#DejaVuSans-44f" transform="translate(840.332031 0)"/>
      <use xlink:href="#DejaVuSans-432" transform="translate(900.488281 0)"/>
      <use xlink:href="#DejaVuSans-43b" transform="translate(959.423828 0)"/>
      <use xlink:href="#DejaVuSans-435" transform="translate(1023.339844 0)"/>
      <use xlink:href="#DejaVuSans-43d" transform="translate(1084.863281 0)"/>
      <use xlink:href="#DejaVuSans-438" transform="translate(1150.244141 0)"/>
      <use xlink:href="#DejaVuSans-439" transform="translate(1215.234375 0)"/>
     </g>
    </g>
   </g>
   <g id="patch_7">
    <path d="M 89.99 390.063262 
L 89.99 47.3375 
" style="fill: none; stroke: #000000; stroke-width: 0.8; stroke-linejoin: miter; stroke-linecap: square"/>
   </g>
   <g id="patch_8">
    <path d="M 704.88 390.063262 
L 704.88 47.3375 
" style="fill: none; stroke: #000000; stroke-width: 0.8; stroke-linejoin: miter; stroke-linecap: square"/>
   </g>
   <g id="patch_9">
    <path d="M 89.99 390.063262 
L 704.88 390.063262 
" style="fill: none; stroke: #000000; stroke-width: 0.8; stroke-linejoin: miter; stroke-linecap: square"/>
   </g>
   <g id="patch_10">
    <path d="M 89.99 47.3375 
L 704.88 47.3375 
" style="fill: none; stroke: #000000; stroke-width: 0.8; stroke-linejoin: miter; stroke-linecap: square"/>
   </g>
   <g id="text_13">
    <!-- 10134 -->
    <g transform="translate(154.511944 60.730107) scale(0.14 -0.14)">
     <defs>
      <path id="DejaVuSans-33" d="M 2597 2516 
Q 3050 2419 3304 2112 
Q 3559 1806 3559 1356 
Q 3559 666 3084 287 
Q 2609 -91 1734 -91 
Q 1441 -91 1130 -33 
Q 819 25 488 141 
L 488 750 
Q 750 597 1062 519 
Q 1375 441 1716 441 
Q 2309 441 2620 675 
Q 2931 909 2931 1356 
Q 2931 1769 2642 2001 
Q 2353 2234 1838 2234 
L 1294 2234 
L 1294 2753 
L 1863 2753 
Q 2328 2753 2575 2939 
Q 2822 3125 2822 3475 
Q 2822 3834 2567 4026 
Q 2313 4219 1838 4219 
Q 1578 4219 1281 4162 
Q 984 4106 628 3988 
L 628 4550 
Q 988 4650 1302 4700 
Q 1616 4750 1894 4750 
Q 2613 4750 3031 4423 
Q 3450 4097 3450 3541 
Q 3450 3153 3228 2886 
Q 3006 2619 2597 2516 
z
" transform="scale(0.015625)"/>
     </defs>
     <use xlink:href="#DejaVuSans-31"/>
     <use xlink:href="#DejaVuSans-30" transform="translate(63.623047 0)"/>
     <use xlink:href="#DejaVuSans-31" transform="translate(127.246094 0)"/>
     <use xlink:href="#DejaVuSans-33" transform="translate(190.869141 0)"/>
     <use xlink:href="#DejaVuSans-34" transform="translate(254.492188 0)"/>
    </g>
   </g>
   <g id="text_14">
    <!-- 6899 -->
    <g transform="translate(306.068565 164.926057) scale(0.14 -0.14)">
     <defs>
      <path id="DejaVuSans-39" d="M 703 97 
L 703 672 
Q 941 559 1184 500 
Q 1428 441 1663 441 
Q 2288 441 2617 861 
Q 2947 1281 2994 2138 
Q 2813 1869 2534 1725 
Q 2256 1581 1919 1581 
Q 1219 1581 811 2004 
Q 403 2428 403 3163 
Q 403 3881 828 4315 
Q 1253 4750 1959 4750 
Q 2769 4750 3195 4129 
Q 3622 3509 3622 2328 
Q 3622 1225 3098 567 
Q 2575 -91 1691 -91 
Q 1453 -91 1209 -44 
Q 966 3 703 97 
z
M 1959 2075 
Q 2384 2075 2632 2365 
Q 2881 2656 2881 3163 
Q 2881 3666 2632 3958 
Q 2384 4250 1959 4250 
Q 1534 4250 1286 3958 
Q 1038 3666 1038 3163 
Q 1038 2656 1286 2365 
Q 1534 2075 1959 2075 
z
" transform="scale(0.015625)"/>
     </defs>
     <use xlink:href="#DejaVuSans-36"/>
     <use xlink:href="#DejaVuSans-38" transform="translate(63.623047 0)"/>
     <use xlink:href="#DejaVuSans-39" transform="translate(127.246094 0)"/>
     <use xlink:href="#DejaVuSans-39" transform="translate(190.869141 0)"/>
    </g>
   </g>
   <g id="text_15">
    <!-- 239 -->
    <g transform="translate(457.625185 379.437656) scale(0.14 -0.14)">
     <use xlink:href="#DejaVuSans-32"/>
     <use xlink:href="#DejaVuSans-33" transform="translate(63.623047 0)"/>
     <use xlink:href="#DejaVuSans-39" transform="translate(127.246094 0)"/>
    </g>
   </g>
   <g id="text_16">
    <!-- 6096 -->
    <g transform="translate(600.274306 190.789843) scale(0.14 -0.14)">
     <use xlink:href="#DejaVuSans-36"/>
     <use xlink:href="#DejaVuSans-30" transform="translate(63.623047 0)"/>
     <use xlink:href="#DejaVuSans-39" transform="translate(127.246094 0)"/>
     <use xlink:href="#DejaVuSans-36" transform="translate(190.869141 0)"/>
    </g>
   </g>
   <g id="text_17">
    <!-- Разрешения на детей и животных в объявлениях -->
    <g transform="translate(167.63 27.3375) scale(0.16 -0.16)">
     <defs>
      <path id="DejaVuSans-Bold-420" d="M 588 4666 
L 2584 4666 
Q 3475 4666 3951 4270 
Q 4428 3875 4428 3144 
Q 4428 2409 3951 2014 
Q 3475 1619 2584 1619 
L 1791 1619 
L 1791 0 
L 588 0 
L 588 4666 
z
M 1791 3794 
L 1791 2491 
L 2456 2491 
Q 2806 2491 2997 2661 
Q 3188 2831 3188 3144 
Q 3188 3456 2997 3625 
Q 2806 3794 2456 3794 
L 1791 3794 
z
" transform="scale(0.015625)"/>
      <path id="DejaVuSans-Bold-430" d="M 2106 1575 
Q 1756 1575 1579 1456 
Q 1403 1338 1403 1106 
Q 1403 894 1545 773 
Q 1688 653 1941 653 
Q 2256 653 2472 879 
Q 2688 1106 2688 1447 
L 2688 1575 
L 2106 1575 
z
M 3816 1997 
L 3816 0 
L 2688 0 
L 2688 519 
Q 2463 200 2181 54 
Q 1900 -91 1497 -91 
Q 953 -91 614 226 
Q 275 544 275 1050 
Q 275 1666 698 1953 
Q 1122 2241 2028 2241 
L 2688 2241 
L 2688 2328 
Q 2688 2594 2478 2717 
Q 2269 2841 1825 2841 
Q 1466 2841 1156 2769 
Q 847 2697 581 2553 
L 581 3406 
Q 941 3494 1303 3539 
Q 1666 3584 2028 3584 
Q 2975 3584 3395 3211 
Q 3816 2838 3816 1997 
z
" transform="scale(0.015625)"/>
      <path id="DejaVuSans-Bold-437" d="M 900 2181 
L 1413 2181 
Q 1872 2181 2039 2281 
Q 2206 2381 2206 2519 
Q 2206 2841 1469 2841 
Q 853 2841 472 2625 
L 472 3434 
Q 1041 3584 1713 3584 
Q 2500 3584 2862 3361 
Q 3225 3138 3225 2666 
Q 3225 2047 2541 1888 
Q 3313 1697 3313 994 
Q 3313 453 2888 181 
Q 2463 -91 1553 -91 
Q 875 -91 313 84 
L 313 947 
Q 1013 653 1428 653 
Q 1884 653 2089 776 
Q 2294 900 2294 1056 
Q 2294 1491 1394 1491 
L 900 1491 
L 900 2181 
z
" transform="scale(0.015625)"/>
      <path id="DejaVuSans-Bold-440" d="M 1656 506 
L 1656 -1331 
L 538 -1331 
L 538 3500 
L 1656 3500 
L 1656 2988 
Q 1888 3294 2169 3439 
Q 2450 3584 2816 3584 
Q 3463 3584 3878 3070 
Q 4294 2556 4294 1747 
Q 4294 938 3878 423 
Q 3463 -91 2816 -91 
Q 2450 -91 2169 54 
Q 1888 200 1656 506 
z
M 2400 2772 
Q 2041 2772 1848 2508 
Q 1656 2244 1656 1747 
Q 1656 1250 1848 986 
Q 2041 722 2400 722 
Q 2759 722 2948 984 
Q 3138 1247 3138 1747 
Q 3138 2247 2948 2509 
Q 2759 2772 2400 2772 
z
" transform="scale(0.015625)"/>
      <path id="DejaVuSans-Bold-435" d="M 4031 1759 
L 4031 1441 
L 1416 1441 
Q 1456 1047 1700 850 
Q 1944 653 2381 653 
Q 2734 653 3104 758 
Q 3475 863 3866 1075 
L 3866 213 
Q 3469 63 3072 -14 
Q 2675 -91 2278 -91 
Q 1328 -91 801 392 
Q 275 875 275 1747 
Q 275 2603 792 3093 
Q 1309 3584 2216 3584 
Q 3041 3584 3536 3087 
Q 4031 2591 4031 1759 
z
M 2881 2131 
Q 2881 2450 2695 2645 
Q 2509 2841 2209 2841 
Q 1884 2841 1681 2658 
Q 1478 2475 1428 2131 
L 2881 2131 
z
" transform="scale(0.015625)"/>
      <path id="DejaVuSans-Bold-448" d="M 3938 800 
L 5100 800 
L 5100 3500 
L 6219 3500 
L 6219 0 
L 538 0 
L 538 3500 
L 1656 3500 
L 1656 800 
L 2819 800 
L 2819 3500 
L 3938 3500 
L 3938 800 
z
" transform="scale(0.015625)"/>
      <path id="DejaVuSans-Bold-43d" d="M 538 3500 
L 1656 3500 
L 1656 2169 
L 2766 2169 
L 2766 3500 
L 3884 3500 
L 3884 0 
L 2766 0 
L 2766 1478 
L 1656 1478 
L 1656 0 
L 538 0 
L 538 3500 
z
" transform="scale(0.015625)"/>
      <path id="DejaVuSans-Bold-438" d="M 3947 3500 
L 3947 0 
L 2828 0 
L 2828 1863 
L 1700 0 
L 538 0 
L 538 3500 
L 1656 3500 
L 1656 1638 
L 2784 3500 
L 3947 3500 
z
" transform="scale(0.015625)"/>
      <path id="DejaVuSans-Bold-44f" d="M 1528 2394 
Q 1528 2169 1651 2069 
Q 1775 1969 2059 1969 
L 2463 1969 
L 2463 2816 
L 2059 2816 
Q 1775 2816 1651 2719 
Q 1528 2622 1528 2394 
z
M 197 0 
L 1113 1497 
Q 847 1650 650 1917 
Q 453 2184 453 2516 
Q 453 3013 789 3256 
Q 1125 3500 1878 3500 
L 3581 3500 
L 3581 0 
L 2463 0 
L 2463 1278 
L 2069 1278 
L 1288 0 
L 197 0 
z
" transform="scale(0.015625)"/>
      <path id="DejaVuSans-Bold-20" transform="scale(0.015625)"/>
      <path id="DejaVuSans-Bold-434" d="M 547 800 
Q 903 919 1053 1314 
Q 1203 1709 1203 2838 
L 1203 3500 
L 4228 3500 
L 4228 800 
L 4809 800 
L 4809 -884 
L 4009 -884 
L 4009 0 
L 1159 0 
L 1159 -884 
L 359 -884 
L 359 800 
L 547 800 
z
M 3109 2700 
L 2322 2700 
L 2322 2603 
Q 2322 1456 2063 800 
L 3109 800 
L 3109 2700 
z
" transform="scale(0.015625)"/>
      <path id="DejaVuSans-Bold-442" d="M 25 3500 
L 3681 3500 
L 3681 2809 
L 2413 2809 
L 2413 0 
L 1297 0 
L 1297 2809 
L 25 2809 
L 25 3500 
z
" transform="scale(0.015625)"/>
      <path id="DejaVuSans-Bold-439" d="M 3947 3500 
L 3947 0 
L 2828 0 
L 2828 1863 
L 1700 0 
L 538 0 
L 538 3500 
L 1656 3500 
L 1656 1638 
L 2784 3500 
L 3947 3500 
z
M 1190 4891 
L 1637 4891 
Q 1671 4672 1826 4556 
Q 1981 4441 2240 4441 
Q 2499 4441 2654 4556 
Q 2809 4672 2843 4891 
L 3290 4891 
Q 3271 4441 2999 4202 
Q 2728 3963 2240 3963 
Q 1753 3963 1481 4202 
Q 1209 4441 1190 4891 
z
" transform="scale(0.015625)"/>
      <path id="DejaVuSans-Bold-436" d="M 94 0 
L 1678 2078 
L 216 3500 
L 1441 3500 
L 2625 2347 
L 2625 3500 
L 3744 3500 
L 3744 2347 
L 4928 3500 
L 6153 3500 
L 4691 2078 
L 6275 0 
L 5119 0 
L 4025 1431 
L 3744 1159 
L 3744 0 
L 2625 0 
L 2625 1159 
L 2344 1431 
L 1250 0 
L 94 0 
z
" transform="scale(0.015625)"/>
      <path id="DejaVuSans-Bold-432" d="M 2184 2181 
Q 2378 2181 2478 2261 
Q 2578 2341 2578 2497 
Q 2578 2653 2478 2731 
Q 2378 2809 2184 2809 
L 1656 2809 
L 1656 2181 
L 2184 2181 
z
M 2222 700 
Q 2469 700 2594 798 
Q 2719 897 2719 1094 
Q 2719 1288 2594 1384 
Q 2469 1481 2222 1481 
L 1656 1481 
L 1656 700 
L 2222 700 
z
M 538 3500 
L 2141 3500 
Q 2919 3500 3267 3279 
Q 3616 3059 3616 2575 
Q 3616 2319 3487 2139 
Q 3359 1959 3119 1872 
Q 3428 1788 3598 1561 
Q 3769 1334 3769 1003 
Q 3769 497 3403 248 
Q 3038 0 2294 0 
L 538 0 
L 538 3500 
z
" transform="scale(0.015625)"/>
      <path id="DejaVuSans-Bold-43e" d="M 2203 2784 
Q 1831 2784 1636 2517 
Q 1441 2250 1441 1747 
Q 1441 1244 1636 976 
Q 1831 709 2203 709 
Q 2569 709 2762 976 
Q 2956 1244 2956 1747 
Q 2956 2250 2762 2517 
Q 2569 2784 2203 2784 
z
M 2203 3584 
Q 3106 3584 3614 3096 
Q 4122 2609 4122 1747 
Q 4122 884 3614 396 
Q 3106 -91 2203 -91 
Q 1297 -91 786 396 
Q 275 884 275 1747 
Q 275 2609 786 3096 
Q 1297 3584 2203 3584 
z
" transform="scale(0.015625)"/>
      <path id="DejaVuSans-Bold-44b" d="M 4154 3500 
L 5272 3500 
L 5272 0 
L 4154 0 
L 4154 3500 
z
M 2719 1094 
Q 2719 1291 2594 1388 
Q 2472 1481 2222 1481 
L 1656 1481 
L 1656 700 
L 2222 700 
Q 2469 700 2594 800 
Q 2719 897 2719 1094 
z
M 538 3500 
L 1656 3500 
L 1656 2172 
L 2291 2172 
Q 3000 2172 3381 1913 
Q 3766 1650 3766 1081 
Q 3766 513 3381 256 
Q 3000 0 2291 0 
L 538 0 
L 538 3500 
z
" transform="scale(0.015625)"/>
      <path id="DejaVuSans-Bold-445" d="M 1422 1791 
L 159 3500 
L 1344 3500 
L 2059 2463 
L 2784 3500 
L 3969 3500 
L 2706 1797 
L 4031 0 
L 2847 0 
L 2059 1106 
L 1281 0 
L 97 0 
L 1422 1791 
z
" transform="scale(0.015625)"/>
      <path id="DejaVuSans-Bold-431" d="M 344 1941 
L 322 2463 
Q 275 2672 275 2881 
Q 275 3494 456 3894 
Q 791 4631 1238 4781 
Q 1606 4909 3141 5031 
Q 3297 5044 3475 5072 
L 3725 4378 
Q 3488 4316 2269 4209 
Q 1734 4163 1516 4013 
Q 1153 3766 1125 3300 
Q 1584 3584 2275 3584 
Q 3178 3584 3686 3096 
Q 4194 2609 4194 1747 
Q 4194 884 3687 396 
Q 3181 -91 2275 -91 
Q 1369 -91 858 396 
Q 347 884 347 1747 
Q 347 1866 344 1941 
z
M 2272 2784 
Q 1903 2784 1708 2517 
Q 1513 2250 1513 1747 
Q 1513 1244 1708 976 
Q 1903 709 2272 709 
Q 2641 709 2834 976 
Q 3028 1244 3028 1747 
Q 3028 2250 2834 2517 
Q 2641 2784 2272 2784 
z
" transform="scale(0.015625)"/>
      <path id="DejaVuSans-Bold-44a" d="M 3009 700 
Q 3256 700 3381 798 
Q 3506 897 3506 1094 
Q 3506 1288 3382 1384 
Q 3259 1481 3009 1481 
L 2444 1481 
L 2444 700 
L 3009 700 
z
M 1325 0 
L 1325 2809 
L 125 2809 
L 125 3500 
L 2444 3500 
L 2444 2172 
L 3078 2172 
Q 3788 2172 4170 1911 
Q 4553 1650 4553 1081 
Q 4553 513 4167 256 
Q 3781 0 3078 0 
L 1325 0 
z
" transform="scale(0.015625)"/>
      <path id="DejaVuSans-Bold-43b" d="M 353 0 
L 353 800 
Q 906 913 1031 1278 
Q 1125 1556 1125 2928 
L 1125 3500 
L 4150 3500 
L 4150 0 
L 3031 0 
L 3031 2700 
L 2244 2700 
L 2244 2584 
Q 2244 1213 2028 813 
Q 1591 0 353 0 
z
" transform="scale(0.015625)"/>
     </defs>
     <use xlink:href="#DejaVuSans-Bold-420"/>
     <use xlink:href="#DejaVuSans-Bold-430" transform="translate(73.291016 0)"/>
     <use xlink:href="#DejaVuSans-Bold-437" transform="translate(140.771484 0)"/>
     <use xlink:href="#DejaVuSans-Bold-440" transform="translate(198.876953 0)"/>
     <use xlink:href="#DejaVuSans-Bold-435" transform="translate(270.458984 0)"/>
     <use xlink:href="#DejaVuSans-Bold-448" transform="translate(338.28125 0)"/>
     <use xlink:href="#DejaVuSans-Bold-435" transform="translate(444.482422 0)"/>
     <use xlink:href="#DejaVuSans-Bold-43d" transform="translate(512.304688 0)"/>
     <use xlink:href="#DejaVuSans-Bold-438" transform="translate(581.396484 0)"/>
     <use xlink:href="#DejaVuSans-Bold-44f" transform="translate(651.464844 0)"/>
     <use xlink:href="#DejaVuSans-Bold-20" transform="translate(715.673828 0)"/>
     <use xlink:href="#DejaVuSans-Bold-43d" transform="translate(750.488281 0)"/>
     <use xlink:href="#DejaVuSans-Bold-430" transform="translate(819.580078 0)"/>
     <use xlink:href="#DejaVuSans-Bold-20" transform="translate(887.060547 0)"/>
     <use xlink:href="#DejaVuSans-Bold-434" transform="translate(921.875 0)"/>
     <use xlink:href="#DejaVuSans-Bold-435" transform="translate(1002.636719 0)"/>
     <use xlink:href="#DejaVuSans-Bold-442" transform="translate(1070.458984 0)"/>
     <use xlink:href="#DejaVuSans-Bold-435" transform="translate(1128.417969 0)"/>
     <use xlink:href="#DejaVuSans-Bold-439" transform="translate(1196.240234 0)"/>
     <use xlink:href="#DejaVuSans-Bold-20" transform="translate(1266.308594 0)"/>
     <use xlink:href="#DejaVuSans-Bold-438" transform="translate(1301.123047 0)"/>
     <use xlink:href="#DejaVuSans-Bold-20" transform="translate(1371.191406 0)"/>
     <use xlink:href="#DejaVuSans-Bold-436" transform="translate(1406.005859 0)"/>
     <use xlink:href="#DejaVuSans-Bold-438" transform="translate(1505.517578 0)"/>
     <use xlink:href="#DejaVuSans-Bold-432" transform="translate(1575.585938 0)"/>
     <use xlink:href="#DejaVuSans-Bold-43e" transform="translate(1638.867188 0)"/>
     <use xlink:href="#DejaVuSans-Bold-442" transform="translate(1707.568359 0)"/>
     <use xlink:href="#DejaVuSans-Bold-43d" transform="translate(1765.527344 0)"/>
     <use xlink:href="#DejaVuSans-Bold-44b" transform="translate(1834.619141 0)"/>
     <use xlink:href="#DejaVuSans-Bold-445" transform="translate(1925.048828 0)"/>
     <use xlink:href="#DejaVuSans-Bold-20" transform="translate(1989.550781 0)"/>
     <use xlink:href="#DejaVuSans-Bold-432" transform="translate(2024.365234 0)"/>
     <use xlink:href="#DejaVuSans-Bold-20" transform="translate(2087.646484 0)"/>
     <use xlink:href="#DejaVuSans-Bold-43e" transform="translate(2122.460938 0)"/>
     <use xlink:href="#DejaVuSans-Bold-431" transform="translate(2191.162109 0)"/>
     <use xlink:href="#DejaVuSans-Bold-44a" transform="translate(2260.986328 0)"/>
     <use xlink:href="#DejaVuSans-Bold-44f" transform="translate(2336.132812 0)"/>
     <use xlink:href="#DejaVuSans-Bold-432" transform="translate(2400.341797 0)"/>
     <use xlink:href="#DejaVuSans-Bold-43b" transform="translate(2463.623047 0)"/>
     <use xlink:href="#DejaVuSans-Bold-435" transform="translate(2536.865234 0)"/>
     <use xlink:href="#DejaVuSans-Bold-43d" transform="translate(2604.6875 0)"/>
     <use xlink:href="#DejaVuSans-Bold-438" transform="translate(2673.779297 0)"/>
     <use xlink:href="#DejaVuSans-Bold-44f" transform="translate(2743.847656 0)"/>
     <use xlink:href="#DejaVuSans-Bold-445" transform="translate(2808.056641 0)"/>
    </g>
   </g>
  </g>
 </g>
 <defs>
  <clipPath id="pe9b3b6a2fd">
   <rect x="89.99" y="47.3375" width="614.89" height="342.725762"/>
  </clipPath>
 </defs>
</svg>
